<svg width="65" height="14" viewBox="0 0 65 14" fill="none" xmlns="http://www.w3.org/2000/svg">
<path d="M59.8984 5.46294L48.3426 4.78961C48.3426 6.53791 49.5054 7.70147 51.4833 7.86094L59.7066 8.48702C60.3419 8.54018 60.7375 8.69375 60.7375 9.21351C60.7375 9.73327 60.2879 9.89275 59.3589 9.89275H48.1568V13.2712H59.6047C63.2128 13.2712 64.8071 12.0309 64.8071 9.18989C64.8071 6.63241 63.3807 5.67557 59.8984 5.46294Z" fill="#C2C0C1"/>
<path d="M44.4408 8.40437C44.4408 9.59747 43.8294 9.96366 41.7256 9.96366H38.8187C37.0866 9.96366 36.3434 9.46753 36.3434 8.40437V4.21673L32.6513 3.95685V8.7115H32.5734C32.3636 7.33531 31.8302 5.72286 28.3299 5.48661L16.7682 4.73649C16.7682 6.47298 18.0388 7.51841 20.0167 7.72514L28.0602 8.53431C28.6895 8.58156 29.175 8.77057 29.175 9.29033C29.175 9.86325 28.6955 9.91051 27.9523 9.91051H16.6363V4.71287L12.9382 4.48252V13.2594H27.9763C31.3267 13.2594 32.4056 11.5466 32.5674 10.1172H32.6453C33.0648 12.3735 35.0667 13.2594 38.4711 13.2594H42.2231C46.1969 13.2594 48.0789 12.0663 48.0789 9.25489V4.78965L44.4408 4.58293V8.40437Z" fill="#C2C0C1"/>
<path d="M0.807129 13.2653H5.29037L10.9124 4.31714L6.90265 3.93323L0.807129 13.2653Z" fill="#C2C0C1"/>
<path d="M52.0407 0.26532C49.4275 0.26532 48.2647 1.87777 48.0849 3.41343V0.26532H44.4408V3.59653H64.4355V0.26532H52.0407Z" fill="#C2C0C1"/>
<path d="M36.3434 0.26532H32.6513V3.59653H36.3434V0.26532Z" fill="#C2C0C1"/>
<path d="M31.992 0.26532H20.7239C18.1107 0.26532 16.9539 1.87777 16.6902 3.41343V0.26532H10.4329C9.57578 0.26532 9.14424 0.525202 8.7187 1.12766L7.00452 3.59653H31.986L31.992 0.26532Z" fill="#C2C0C1"/>
</svg>
