<svg width="126" height="19" viewBox="0 0 126 19" fill="none" xmlns="http://www.w3.org/2000/svg">
<path d="M11.38 1.51477V6.21267H4.82788V14.6018H0V1.51477H11.38Z" fill="#C2C0C1"/>
<path d="M15.932 7.7738V12.7182H11.5486V18.0158H6.828V7.7738H15.932Z" fill="#C2C0C1"/>
<path d="M119.878 18.619C118.816 18.619 117.883 18.4369 117.079 18.0727C116.29 17.7086 115.63 17.223 115.099 16.6161C114.583 15.994 114.188 15.3036 113.915 14.5449C113.657 13.7862 113.528 13.0124 113.528 12.2234V11.791C113.528 10.9716 113.657 10.1826 113.915 9.42391C114.188 8.65007 114.583 7.96727 115.099 7.37551C115.63 6.76857 116.282 6.29061 117.056 5.94163C117.83 5.57747 118.725 5.39539 119.742 5.39539C121.077 5.39539 122.192 5.69127 123.087 6.28303C123.998 6.85961 124.681 7.62587 125.136 8.58179C125.591 9.52254 125.819 10.5392 125.819 11.6316V12.7696H114.871V10.835H123.838L122.86 11.791C122.86 11.0019 122.746 10.3267 122.518 9.76531C122.291 9.2039 121.942 8.77146 121.471 8.46799C121.016 8.16452 120.44 8.01279 119.742 8.01279C119.044 8.01279 118.452 8.17211 117.966 8.49075C117.481 8.80939 117.109 9.27218 116.851 9.87911C116.608 10.4709 116.487 11.184 116.487 12.0186C116.487 12.7924 116.608 13.4828 116.851 14.0897C117.094 14.6815 117.466 15.1519 117.966 15.5008C118.467 15.8347 119.104 16.0016 119.878 16.0016C120.652 16.0016 121.282 15.8498 121.767 15.5464C122.253 15.2277 122.564 14.8408 122.7 14.3856H125.614C125.432 15.2353 125.083 15.9788 124.567 16.6161C124.051 17.2534 123.391 17.7465 122.587 18.0955C121.798 18.4445 120.895 18.619 119.878 18.619Z" fill="#C2C0C1"/>
<path d="M104.009 18.5962C103.145 18.5962 102.348 18.4368 101.62 18.1182C100.891 17.7996 100.262 17.3519 99.7306 16.7754C99.1995 16.1988 98.7898 15.5311 98.5015 14.7725C98.2132 13.9986 98.0691 13.1641 98.0691 12.2689V11.7909C98.0691 10.9109 98.2057 10.0839 98.4788 9.31006C98.7671 8.53622 99.1616 7.86101 99.6623 7.28442C100.178 6.70783 100.793 6.26022 101.506 5.94158C102.234 5.60777 103.038 5.44086 103.918 5.44086C104.89 5.44086 105.739 5.65329 106.468 6.07814C107.211 6.48782 107.803 7.10993 108.243 7.94446C108.683 8.779 108.926 9.82596 108.971 11.0853L108.038 9.99286V1.57166H111.202V18.1865H108.698V12.9289H109.244C109.199 14.1883 108.941 15.2428 108.47 16.0926C108 16.9271 107.378 17.5568 106.604 17.9816C105.845 18.3913 104.981 18.5962 104.009 18.5962ZM104.715 15.9332C105.337 15.9332 105.906 15.7967 106.422 15.5236C106.938 15.2353 107.348 14.8256 107.651 14.2945C107.97 13.7483 108.129 13.111 108.129 12.3827V11.4723C108.129 10.7439 107.97 10.137 107.651 9.65146C107.332 9.15074 106.915 8.77141 106.399 8.51346C105.883 8.24034 105.322 8.10378 104.715 8.10378C104.032 8.10378 103.425 8.27069 102.894 8.6045C102.378 8.92314 101.969 9.37835 101.665 9.97011C101.377 10.5619 101.233 11.2523 101.233 12.0413C101.233 12.8303 101.384 13.5207 101.688 14.1124C101.991 14.689 102.401 15.1366 102.917 15.4553C103.448 15.7739 104.047 15.9332 104.715 15.9332Z" fill="#C2C0C1"/>
<path d="M92.534 18.1865V5.82785H95.6976V18.1865H92.534ZM90.8042 8.19489V5.82785H95.6976V8.19489H90.8042ZM93.6947 4.34845C93.0726 4.34845 92.6098 4.18913 92.3064 3.87049C92.0181 3.53667 91.8739 3.11941 91.8739 2.61869C91.8739 2.11796 92.0181 1.70828 92.3064 1.38964C92.6098 1.071 93.0726 0.911682 93.6947 0.911682C94.3168 0.911682 94.772 1.071 95.0603 1.38964C95.3486 1.70828 95.4928 2.11796 95.4928 2.61869C95.4928 3.11941 95.3486 3.53667 95.0603 3.87049C94.772 4.18913 94.3168 4.34845 93.6947 4.34845Z" fill="#C2C0C1"/>
<path d="M82.9067 18.1865V5.82784H85.4103V11.0626H85.3421C85.3421 9.28736 85.7214 7.94452 86.4801 7.03412C87.2387 6.12372 88.354 5.66852 89.8258 5.66852H90.281V8.42248H89.4161C88.354 8.42248 87.527 8.71077 86.9353 9.28736C86.3587 9.84878 86.0704 10.6681 86.0704 11.7454V18.1865H82.9067Z" fill="#C2C0C1"/>
<path d="M68.7738 18.1865V15.0001C68.7738 14.3022 68.88 13.6952 69.0925 13.1793C69.3201 12.6634 69.6842 12.2082 70.1849 11.8137C70.7008 11.404 71.376 11.0171 72.2106 10.653L75.0328 9.40116C75.7308 9.08252 76.2619 8.6956 76.626 8.2404C77.0054 7.77003 77.195 7.17068 77.195 6.44236C77.195 5.63817 76.9523 5.00089 76.4667 4.53051C75.9963 4.04497 75.3211 3.80219 74.4411 3.80219C73.561 3.80219 72.8782 4.04497 72.3927 4.53051C71.9223 5.01606 71.6871 5.69128 71.6871 6.55616H68.569C68.569 5.52437 68.789 4.59879 69.229 3.77943C69.669 2.9449 70.3215 2.29244 71.1864 1.82207C72.0513 1.33652 73.1361 1.09375 74.4411 1.09375C75.746 1.09375 76.8309 1.32894 77.6957 1.79931C78.5606 2.26969 79.2131 2.89938 79.6531 3.68839C80.0931 4.46223 80.3132 5.32712 80.3132 6.28304V6.57892C80.3132 7.82313 79.9642 8.86251 79.2662 9.69704C78.5682 10.5164 77.544 11.2295 76.1936 11.8365L73.3713 13.0883C72.8403 13.3159 72.4685 13.5587 72.2561 13.8166C72.0437 14.0594 71.9375 14.3932 71.9375 14.818V16.2747L71.1636 15.4326H80.3814V18.1865H68.7738Z" fill="#C2C0C1"/>
<path d="M54.7783 18.1865L58.8068 11.5861L58.7386 12.1096L54.9376 5.82782H58.3744L60.8552 10.175H61.1966L63.5409 5.82782H66.7729L63.1768 12.0868L63.2451 11.6316L67.5012 18.1865H64.0644L61.1284 13.5207H60.787L58.0102 18.1865H54.7783Z" fill="#C2C0C1"/>
<path d="M48.1059 18.619C47.0438 18.619 46.1106 18.4369 45.3064 18.0727C44.5174 17.7086 43.8574 17.223 43.3263 16.6161C42.8104 15.994 42.4159 15.3036 42.1428 14.5449C41.8848 13.7862 41.7559 13.0124 41.7559 12.2234V11.791C41.7559 10.9716 41.8848 10.1826 42.1428 9.42391C42.4159 8.65007 42.8104 7.96727 43.3263 7.37551C43.8574 6.76857 44.5098 6.29061 45.2837 5.94163C46.0575 5.57747 46.9527 5.39539 47.9693 5.39539C49.3046 5.39539 50.4198 5.69127 51.3151 6.28303C52.2255 6.85961 52.9083 7.62587 53.3635 8.58179C53.8187 9.52254 54.0463 10.5392 54.0463 11.6316V12.7696H43.0987V10.835H52.0662L51.0875 11.791C51.0875 11.0019 50.9737 10.3267 50.7461 9.76531C50.5185 9.2039 50.1695 8.77146 49.6991 8.46799C49.2439 8.16452 48.6673 8.01279 47.9693 8.01279C47.2714 8.01279 46.6796 8.17211 46.1941 8.49075C45.7085 8.80939 45.3368 9.27218 45.0788 9.87911C44.8361 10.4709 44.7147 11.184 44.7147 12.0186C44.7147 12.7924 44.8361 13.4828 45.0788 14.0897C45.3216 14.6815 45.6933 15.1519 46.1941 15.5008C46.6948 15.8347 47.3321 16.0016 48.1059 16.0016C48.8797 16.0016 49.5094 15.8498 49.995 15.5464C50.4805 15.2277 50.7916 14.8408 50.9282 14.3856H53.8414C53.6594 15.2353 53.3104 15.9788 52.7945 16.6161C52.2786 17.2534 51.6185 17.7465 50.8144 18.0955C50.0253 18.4445 49.1225 18.619 48.1059 18.619Z" fill="#C2C0C1"/>
<path d="M36.255 18.1865V1.57166H39.4186V18.1865H36.255ZM34.7073 3.9387V1.57166H39.4186V3.9387H34.7073Z" fill="#C2C0C1"/>
<path d="M23.932 18.1865V1.57166H27.1639V18.1865H23.932ZM26.7087 11.2674V8.53622L33.3547 8.51346V11.2447L26.7087 11.2674ZM26.7087 4.30286V1.57166H33.6733V4.30286H26.7087Z" fill="#C2C0C1"/>
</svg>
