<svg width="78" height="24" viewBox="0 0 78 24" fill="none" xmlns="http://www.w3.org/2000/svg">
<path d="M0.807129 16.5339V0.60372H3.65122V16.5339H0.807129V16.534V16.5339ZM10.9319 4.97713C7.28516 4.97713 4.7617 7.73571 4.7617 10.8932C4.7617 14.417 7.50705 16.8447 10.9602 16.8447C14.2375 16.8447 17.0815 14.4619 17.0815 10.8856C17.0815 7.87836 14.7248 4.97713 10.9319 4.97713ZM10.8984 7.67671C12.8068 7.67671 14.2114 9.13816 14.2114 10.9033C14.2114 12.7749 12.6627 14.1401 10.9498 14.1401C8.92595 14.1401 7.6522 12.5619 7.6522 10.9084C7.65225 9.09598 9.09033 7.67671 10.8984 7.67671ZM24.2275 4.97713C20.5809 4.97713 18.0574 7.73571 18.0574 10.8932C18.0574 14.417 20.8027 16.8447 24.2559 16.8447C27.5332 16.8447 30.3771 14.4619 30.3771 10.8856C30.3771 8.77965 29.4502 7.84528 29.4502 7.84528L30.2386 7.57926V5.30819H26.199C26.199 5.30819 25.3231 4.97713 24.2275 4.97713ZM24.1941 7.67671C26.1024 7.67671 27.5072 9.13816 27.5072 10.9033C27.5072 12.7749 25.9584 14.1401 24.2456 14.1401C22.2217 14.1401 20.948 12.5619 20.948 10.9084C20.948 9.09598 22.3861 7.67671 24.1941 7.67671ZM27.487 17.3127C27.487 19.1842 25.9384 20.5596 24.2255 20.5596C22.2016 20.5596 20.9227 18.966 20.9227 17.3127H18.0373C18.0373 20.8365 20.7825 23.2641 24.2358 23.2641C27.5131 23.2641 30.3571 20.8887 30.3571 17.3127H27.487ZM31.5163 16.5339V5.30819H34.3606V16.5339H31.5163ZM37.1224 16.5339V7.82268H35.5972V5.30819H37.1224V1.86097H39.9666V5.30819H41.5329V7.82268H39.9666V16.5339H37.1224ZM34.816 2.11988C34.816 3.14326 33.9727 3.97292 32.9326 3.97292C31.8923 3.97292 31.0491 3.14321 31.0491 2.11988C31.0491 1.09644 31.8924 0.266785 32.9326 0.266785C33.9728 0.266785 34.816 1.09644 34.816 2.11988ZM47.9273 4.96957C44.2633 4.96957 41.9014 7.72947 41.9014 10.9946C41.9014 14.3687 44.2713 16.8523 47.9866 16.8523C51.4523 16.8523 53.1572 14.7231 53.1572 14.7231L51.2559 12.8499C51.2559 12.8499 49.8203 14.3733 48.0226 14.3733C46.524 14.3733 45.3259 13.5504 44.9078 12.0414H53.7703V11.2709C53.7704 8.19622 51.9616 4.96957 47.9273 4.96957ZM47.8372 7.43334C49.1474 7.43334 50.4873 8.12296 50.787 9.77031H44.8306C45.0664 8.6123 46.0962 7.43334 47.8372 7.43334ZM60.8845 16.8538C57.2103 16.8538 54.7066 14.1004 54.7066 10.8541C54.7066 7.50389 57.5361 4.96747 60.8727 4.96747C64.0982 4.96747 65.7494 7.20771 65.7494 7.20771L63.7651 9.15099C63.7651 9.15099 62.6158 7.68995 60.8591 7.68995C58.9123 7.68995 57.5811 9.15529 57.5811 10.8971C57.5811 12.7362 58.9971 14.1473 60.8373 14.1473C62.6222 14.1473 63.7624 12.6887 63.7624 12.6887L65.7664 14.6308C65.7664 14.6308 64.1313 16.8539 60.8846 16.8539L60.8845 16.8538ZM66.8012 16.542V0.563227H69.6453V6.43393C69.6453 6.43393 70.7344 4.96747 73.1034 4.96747C76.0817 4.96747 77.8071 7.14564 77.8071 9.93152V16.542H74.9628V10.3545C74.9628 8.48285 73.7786 7.70631 72.4665 7.70631C70.9716 7.70631 69.6454 8.54333 69.6454 10.4992V16.542H66.8012Z" fill="#C2C0C1"/>
</svg>
