<svg width="120" height="34" viewBox="0 0 120 34" fill="none" xmlns="http://www.w3.org/2000/svg">
<path d="M24.2876 19.0782C23.9816 21.4546 23.028 23.7011 21.5311 25.572C20.0342 27.443 18.0517 28.8662 15.8003 29.6862L13.089 30.6733C12.9756 30.7148 12.854 30.7284 12.7343 30.7129C12.6146 30.6973 12.5004 30.6531 12.4015 30.584C12.3025 30.5148 12.2218 30.4228 12.166 30.3158C12.1103 30.2087 12.0812 30.0898 12.0812 29.9691V21.8391C12.0813 21.6626 12.1434 21.4916 12.2566 21.3561C12.3698 21.2207 12.527 21.1292 12.7007 21.0978L24.2876 19.0782Z" fill="#C2C0C1"/>
<path d="M24.395 17.4097C24.395 17.4737 24.395 17.5377 24.395 17.6017L8.1061 19.3487C8.00161 19.3594 7.89603 19.348 7.79622 19.3153C7.69641 19.2826 7.60458 19.2293 7.5267 19.1588C7.44882 19.0883 7.38662 19.0023 7.34414 18.9062C7.30166 18.8101 7.27983 18.7062 7.28009 18.6012V14.116C7.28012 14.0111 7.30216 13.9074 7.34477 13.8116C7.38738 13.7158 7.44962 13.63 7.52747 13.5597C7.60532 13.4894 7.69704 13.4363 7.79671 13.4037C7.89638 13.3711 8.00178 13.3598 8.1061 13.3705L24.1885 15.0948C24.3252 15.8588 24.3943 16.6335 24.395 17.4097Z" fill="#C2C0C1"/>
<path d="M23.8869 13.8042L7.27592 10.9132L1.43811 9.88684C1.26436 9.85623 1.10698 9.7653 0.993663 9.63008C0.880346 9.49485 0.818357 9.32399 0.818604 9.14757V0.751197C0.81868 0.63049 0.847824 0.511576 0.903572 0.404514C0.95932 0.297452 1.04003 0.20539 1.13888 0.136115C1.23773 0.0668395 1.35181 0.0223888 1.47147 0.00652224C1.59113 -0.00934435 1.71285 0.00383989 1.82633 0.0449598L15.8003 5.13523C17.7364 5.83996 19.4784 6.99274 20.8838 8.49939C22.2893 10.006 23.3183 11.8238 23.8869 13.8042Z" fill="#C2C0C1"/>
<path d="M43.9073 10.8635H42.4825V12.8625H43.9073V10.8635Z" fill="#C2C0C1"/>
<path d="M57.0925 10.8635H55.6655V12.8625H57.0925V10.8635Z" fill="#C2C0C1"/>
<path d="M95.6195 10.8635H94.1946V12.8625H95.6195V10.8635Z" fill="#C2C0C1"/>
<path d="M109.116 10.8635H107.675V12.8625H109.116V10.8635Z" fill="#C2C0C1"/>
<path d="M41.0637 13.0524C40.8181 12.4824 40.4679 11.9634 40.0312 11.5223C39.5849 11.0729 39.0541 10.7164 38.4693 10.4732C37.8845 10.2301 37.2573 10.1052 36.624 10.1057H32.1635V23.3445H36.6281C37.2602 23.3453 37.8863 23.2215 38.4706 22.9802C39.0549 22.7389 39.5859 22.3848 40.0333 21.9382C40.4712 21.502 40.8216 20.9861 41.0658 20.4184C41.3161 19.8308 41.4439 19.1985 41.4416 18.5598V14.9192C41.4449 14.2776 41.3163 13.6422 41.0637 13.0524ZM39.9982 18.5495C40.0006 18.9974 39.9106 19.441 39.7339 19.8525C39.5604 20.2522 39.3162 20.6174 39.0132 20.9305C38.7013 21.2455 38.3297 21.4953 37.9202 21.6651C37.5107 21.8349 37.0714 21.9215 36.6281 21.9196H33.5884V11.5491H36.6281C37.0802 11.5466 37.528 11.6373 37.9435 11.8155C38.3434 11.9845 38.7077 12.2277 39.0173 12.5321C39.3205 12.8426 39.5635 13.2067 39.7339 13.6059C39.9096 14.0213 39.9995 14.4681 39.9982 14.9192V18.5495Z" fill="#C2C0C1"/>
<path d="M43.9073 14.1201H42.4825V23.326H43.9073V14.1201Z" fill="#C2C0C1"/>
<path d="M54.3026 16.8831C54.061 16.3109 53.7103 15.7912 53.2701 15.3529C52.8335 14.9146 52.3169 14.5641 51.7482 14.3204C51.1574 14.0724 50.5232 13.9446 49.8824 13.9446C49.2417 13.9446 48.6075 14.0724 48.0167 14.3204C46.8648 14.8088 45.949 15.7275 45.4643 16.881C45.2136 17.4743 45.0851 18.112 45.0864 18.7561C45.0858 19.3947 45.2144 20.0269 45.4643 20.6146C45.9528 21.7619 46.8669 22.6753 48.0146 23.1628C48.602 23.4139 49.2344 23.5425 49.8732 23.5407C50.1723 23.539 50.4685 23.6002 50.7425 23.7204C51.0064 23.8355 51.2465 23.9987 51.4508 24.2015C51.6562 24.4057 51.8203 24.6476 51.934 24.914C52.0512 25.1877 52.1117 25.4824 52.1117 25.7802C52.1117 26.078 52.0512 26.3727 51.934 26.6465C51.8257 26.8975 51.674 27.1275 51.4859 27.3259H53.1958C53.2123 27.2887 53.2288 27.2516 53.2474 27.2144C53.4408 26.7615 53.5392 26.2737 53.5365 25.7813C53.5429 25.1501 53.3849 24.5281 53.0781 23.9764C52.8544 23.5798 52.5572 23.2294 52.2025 22.9439C52.4695 22.7961 52.7219 22.6232 52.9562 22.4277C53.3084 22.1368 53.6153 21.795 53.8669 21.4137C54.3894 20.6245 54.6674 19.6985 54.6661 18.7519C54.6723 18.1108 54.5487 17.4751 54.3026 16.8831ZM52.9913 20.0612C52.8198 20.4608 52.5762 20.8255 52.2727 21.137C51.9663 21.4479 51.6013 21.6949 51.1989 21.8639C50.785 22.0377 50.3406 22.1272 49.8917 22.1272C49.4428 22.1272 48.9985 22.0377 48.5846 21.8639C48.1829 21.6925 47.8177 21.4457 47.5087 21.137C47.2014 20.8269 46.9548 20.462 46.7818 20.0612C46.6045 19.6498 46.5145 19.2061 46.5175 18.7581C46.5153 18.3076 46.6052 17.8613 46.7818 17.4468C46.9511 17.045 47.1973 16.6803 47.5066 16.373C47.8189 16.0695 48.1843 15.8259 48.5846 15.6544C48.9956 15.4759 49.4395 15.3852 49.8876 15.388C50.3404 15.3856 50.7888 15.4763 51.2051 15.6544C51.6071 15.8205 51.9725 16.0643 52.28 16.3719C52.5876 16.6795 52.8315 17.0448 52.9975 17.4468C53.1753 17.861 53.2653 18.3075 53.2619 18.7581C53.2626 19.2069 53.169 19.6509 52.9872 20.0612H52.9913Z" fill="#C2C0C1"/>
<path d="M57.0925 14.1201H55.6655V23.326H57.0925V14.1201Z" fill="#C2C0C1"/>
<path d="M63.3103 20.6704V20.9306C63.3121 21.2684 63.2468 21.6032 63.1182 21.9156C62.9893 22.217 62.8003 22.4889 62.5627 22.7147C62.3307 22.9398 62.0609 23.1222 61.7656 23.2537C61.4563 23.3915 61.1213 23.4619 60.7827 23.4602C60.4423 23.46 60.1056 23.3897 59.7935 23.2537C59.4954 23.1243 59.2237 22.9409 58.9923 22.7127C58.7632 22.4812 58.5796 22.2087 58.4513 21.9094C58.3141 21.5977 58.2438 21.2607 58.2448 20.9202V11.8796H59.6717V14.1511H62.9551V15.576H59.6717V20.9264C59.6688 21.0702 59.696 21.2129 59.7514 21.3456C59.8069 21.4782 59.8895 21.5978 59.9938 21.6967C60.0961 21.8019 60.2188 21.885 60.3545 21.9408C60.4902 21.9966 60.636 22.0238 60.7827 22.0209C61.0719 22.0177 61.3485 21.9013 61.553 21.6968C61.7576 21.4922 61.8739 21.2157 61.8771 20.9264V20.6704H63.3103Z" fill="#C2C0C1"/>
<path d="M72.7825 16.8315C72.2963 15.6762 71.3772 14.7571 70.2219 14.2709C69.6281 14.0195 68.9895 13.8916 68.3448 13.895C67.7061 13.8924 67.0737 14.0203 66.4862 14.2709C65.3354 14.7609 64.4202 15.6791 63.9339 16.8315C63.6846 17.4251 63.5575 18.0627 63.5601 18.7065C63.5575 19.3452 63.6854 19.9776 63.9359 20.565C64.1815 21.1327 64.5318 21.649 64.9684 22.087C65.4059 22.5252 65.9232 22.8757 66.4924 23.1195C67.0794 23.3715 67.7122 23.4994 68.3509 23.4953C68.9753 23.5032 69.5951 23.3868 70.174 23.1528C70.753 22.9188 71.2796 22.5719 71.7231 22.1324V23.3053H73.1686V18.7065C73.1682 18.0618 73.0369 17.4239 72.7825 16.8315ZM71.4423 20.0095C71.2708 20.4098 71.0265 20.7746 70.7216 21.0854C70.4097 21.4 70.0384 21.6496 69.6294 21.8198C69.2203 21.9899 68.7816 22.0772 68.3386 22.0766C67.8906 22.0792 67.447 21.9892 67.0355 21.8123C66.635 21.6398 66.2707 21.3932 65.9617 21.0854C65.6571 20.7756 65.4146 20.4104 65.2472 20.0095C65.0682 19.5986 64.9768 19.1548 64.9788 18.7065C64.9781 18.2619 65.0653 17.8216 65.2354 17.4109C65.4055 17.0001 65.6551 16.6271 65.97 16.3132C66.2795 16.0081 66.6438 15.7643 67.0438 15.5945C67.4551 15.4201 67.898 15.3322 68.3448 15.3364C68.7961 15.3354 69.2429 15.426 69.6581 15.6028C70.4658 15.9407 71.1072 16.5843 71.4423 17.3932C71.6206 17.808 71.7119 18.255 71.7107 18.7065C71.7127 19.1548 71.6213 19.5986 71.4423 20.0095Z" fill="#C2C0C1"/>
<path d="M76.9126 22.0952V23.5201H76.6503C76.3123 23.522 75.9773 23.456 75.6653 23.3259C75.3619 23.2019 75.0871 23.0171 74.8579 22.7828C74.6304 22.5481 74.4478 22.2737 74.3189 21.9734C74.1814 21.6618 74.111 21.3248 74.1124 20.9842V9.77734H75.5393V20.9821C75.5379 21.1284 75.5657 21.2735 75.6211 21.4089C75.6764 21.5443 75.7582 21.6674 75.8616 21.7708C75.9651 21.8742 76.0881 21.956 76.2235 22.0114C76.3589 22.0667 76.504 22.0945 76.6503 22.0931L76.9126 22.0952Z" fill="#C2C0C1"/>
<path d="M95.6195 14.1201H94.1946V23.326H95.6195V14.1201Z" fill="#C2C0C1"/>
<path d="M106.372 18.723V23.3342H104.947V18.723C104.951 18.2729 104.863 17.8268 104.689 17.4117C104.522 17.011 104.278 16.6464 103.973 16.3379C103.664 16.0322 103.299 15.7883 102.899 15.6193C102.484 15.4422 102.037 15.3516 101.585 15.3529C101.137 15.351 100.694 15.4417 100.282 15.6193C99.8826 15.7915 99.5179 16.0358 99.2065 16.34C98.8924 16.6522 98.6431 17.0235 98.473 17.4325C98.3028 17.8415 98.2153 18.28 98.2153 18.723V23.3342H96.7904V18.723C96.7882 18.0795 96.9168 17.4423 97.1683 16.85C97.6528 15.6971 98.5677 14.7786 99.7186 14.2894C100.309 14.04 100.944 13.9114 101.585 13.9114C102.227 13.9114 102.861 14.04 103.452 14.2894C104.021 14.5337 104.538 14.8841 104.976 15.3219C105.416 15.7612 105.767 16.2815 106.009 16.8541C106.256 17.4459 106.379 18.0818 106.372 18.723Z" fill="#C2C0C1"/>
<path d="M109.116 14.1201V26.8881C109.118 27.2293 109.047 27.567 108.91 27.8793C108.653 28.4834 108.172 28.9645 107.568 29.2216C107.256 29.3576 106.919 29.4279 106.579 29.4281H106.32V28.0012H106.581C106.724 28.0041 106.867 27.9769 107 27.9214C107.132 27.866 107.252 27.7834 107.351 27.679C107.456 27.5768 107.539 27.454 107.595 27.3183C107.651 27.1826 107.678 27.0369 107.675 26.8902V14.1201H109.116Z" fill="#C2C0C1"/>
<path d="M119.421 16.8315C118.936 15.675 118.017 14.7554 116.86 14.2708C116.267 14.0197 115.629 13.8919 114.985 13.895C114.347 13.8924 113.714 14.0203 113.127 14.2708C112.257 14.6407 111.515 15.2586 110.994 16.0475C110.473 16.8363 110.195 17.7611 110.196 18.7065C110.194 19.3455 110.324 19.9782 110.576 20.565C110.822 21.1327 111.172 21.6491 111.609 22.0869C112.046 22.5257 112.563 22.8762 113.133 23.1195C113.72 23.371 114.353 23.499 114.991 23.4953C115.754 23.5032 116.507 23.3275 117.187 22.9832C117.62 22.7622 118.016 22.4752 118.362 22.1324V23.3053H119.807V18.7065C119.808 18.0617 119.676 17.4236 119.421 16.8315ZM118.091 20.0095C117.92 20.4092 117.676 20.7739 117.372 21.0854C117.066 21.3945 116.702 21.6407 116.301 21.8102C115.885 21.9881 115.437 22.0788 114.985 22.0766C114.537 22.0788 114.094 21.9888 113.682 21.8123C113.282 21.6388 112.918 21.3923 112.608 21.0854C112.3 20.776 112.054 20.411 111.882 20.0095C111.705 19.598 111.615 19.1544 111.617 18.7065C111.615 18.2619 111.701 17.8212 111.871 17.4103C112.041 16.9994 112.291 16.6264 112.606 16.3132C112.918 16.0099 113.283 15.7663 113.682 15.5945C114.094 15.4174 114.537 15.3267 114.985 15.3281C115.437 15.3269 115.885 15.4175 116.301 15.5945C116.701 15.7629 117.065 16.0069 117.372 16.3132C117.678 16.6221 117.922 16.9866 118.091 17.387C118.267 17.8023 118.357 18.2491 118.355 18.7003C118.359 19.1503 118.269 19.5961 118.091 20.0095Z" fill="#C2C0C1"/>
<path d="M93.032 10.8635V22.409C93.0331 22.5303 93.0101 22.6506 92.9644 22.7629C92.9187 22.8753 92.8512 22.9774 92.7657 23.0635C92.6802 23.1495 92.5785 23.2177 92.4665 23.2642C92.3545 23.3107 92.2344 23.3345 92.1131 23.3342C91.9582 23.334 91.8058 23.2947 91.6701 23.22C91.5344 23.1453 91.4197 23.0375 91.3366 22.9067L85.4245 13.5315V23.3342H83.9996V11.7825C83.9996 11.5387 84.0964 11.305 84.2688 11.1327C84.4411 10.9603 84.6749 10.8635 84.9186 10.8635C85.073 10.8648 85.2245 10.9048 85.3595 10.9799C85.4944 11.0549 85.6083 11.1626 85.6909 11.293L91.603 20.66V10.8635H93.032Z" fill="#C2C0C1"/>
<path d="M33.6256 28.5753H32.1656V28.1953H35.5234V28.5753H34.0655V32.3481H33.6277L33.6256 28.5753Z" fill="#C2C0C1"/>
<path d="M39.1185 30.919H36.5084C36.517 31.071 36.5557 31.2197 36.6222 31.3566C36.6887 31.4936 36.7816 31.616 36.8957 31.7168C37.0097 31.8176 37.1426 31.8948 37.2867 31.9439C37.4307 31.9931 37.5831 32.0132 37.735 32.0031C37.9148 32.0078 38.0934 31.9733 38.2585 31.902C38.4236 31.8307 38.5712 31.7243 38.6911 31.5901L38.9286 31.8627C38.7778 32.0311 38.5917 32.1641 38.3836 32.2522C38.1755 32.3404 37.9505 32.3816 37.7247 32.3728C36.75 32.3728 36.0871 31.7099 36.0871 30.7827C36.0871 29.8555 36.7334 29.1989 37.6111 29.1989C38.4887 29.1989 39.1247 29.8452 39.1247 30.7827C39.1247 30.824 39.1185 30.8715 39.1185 30.919ZM36.5084 30.6031H38.72C38.6991 30.3241 38.5735 30.0633 38.3684 29.873C38.1634 29.6827 37.8939 29.577 37.6142 29.577C37.3344 29.577 37.065 29.6827 36.8599 29.873C36.6548 30.0633 36.5293 30.3241 36.5084 30.6031Z" fill="#C2C0C1"/>
<path d="M40.2605 30.7868C40.2534 30.575 40.2903 30.364 40.3688 30.1671C40.4474 29.9702 40.5658 29.7917 40.7168 29.6429C40.8677 29.4941 41.0479 29.3782 41.2459 29.3024C41.4438 29.2267 41.6554 29.1929 41.8671 29.203C42.1074 29.1893 42.347 29.2394 42.5617 29.3482C42.7764 29.457 42.9585 29.6206 43.0896 29.8225L42.7757 30.029C42.6751 29.8819 42.5392 29.7625 42.3804 29.6817C42.2217 29.6009 42.0452 29.5612 41.8671 29.5664C41.5445 29.5664 41.2351 29.6945 41.007 29.9226C40.7789 30.1507 40.6508 30.4601 40.6508 30.7827C40.6508 31.1053 40.7789 31.4146 41.007 31.6427C41.2351 31.8708 41.5445 31.999 41.8671 31.999C42.0447 32.0054 42.221 31.967 42.3799 31.8872C42.5387 31.8074 42.6748 31.6889 42.7757 31.5426L43.0896 31.7491C42.9576 31.9501 42.7753 32.113 42.5609 32.2217C42.3464 32.3304 42.1072 32.3811 41.8671 32.3686C41.6558 32.3778 41.4448 32.3433 41.2474 32.2674C41.05 32.1915 40.8703 32.0757 40.7196 31.9273C40.5689 31.7789 40.4503 31.6011 40.3714 31.4048C40.2924 31.2086 40.2546 30.9983 40.2605 30.7868Z" fill="#C2C0C1"/>
<path d="M47.3332 30.539V32.348H46.9202V30.5803C46.9202 29.9216 46.5754 29.5829 45.9827 29.5829C45.3116 29.5829 44.8903 29.9959 44.8903 30.7104V32.348H44.4773V27.9454H44.8903V29.7729C45.0198 29.5851 45.1956 29.4339 45.4008 29.334C45.6059 29.2341 45.8334 29.189 46.0612 29.203C46.8108 29.203 47.3332 29.6428 47.3332 30.539Z" fill="#C2C0C1"/>
<path d="M51.9423 30.5391V32.348H51.5293V30.5804C51.5293 29.9216 51.1844 29.5829 50.5918 29.5829C49.9206 29.5829 49.4994 29.996 49.4994 30.7104V32.348H49.0864V29.2278H49.4994V29.8018C49.6259 29.6057 49.8024 29.4468 50.0108 29.3416C50.2191 29.2363 50.4517 29.1885 50.6847 29.203C51.4116 29.203 51.9423 29.6428 51.9423 30.5391Z" fill="#C2C0C1"/>
<path d="M53.3775 30.7868C53.3779 30.4729 53.4714 30.1662 53.646 29.9053C53.8207 29.6445 54.0687 29.4413 54.3588 29.3214C54.6489 29.2014 54.968 29.1701 55.2758 29.2315C55.5837 29.2928 55.8664 29.444 56.0884 29.666C56.3104 29.8879 56.4616 30.1707 56.5229 30.4786C56.5842 30.7864 56.553 31.1055 56.433 31.3956C56.3131 31.6857 56.1099 31.9337 55.849 32.1084C55.5882 32.283 55.2815 32.3765 54.9676 32.3769C54.7567 32.3847 54.5464 32.3489 54.35 32.2718C54.1535 32.1946 53.9751 32.0778 53.8259 31.9285C53.6766 31.7793 53.5598 31.6009 53.4826 31.4044C53.4055 31.208 53.3697 30.9977 53.3775 30.7868ZM56.124 30.7868C56.1131 30.5598 56.0357 30.341 55.9016 30.1575C55.7674 29.9741 55.5823 29.834 55.3693 29.7548C55.1563 29.6756 54.9247 29.6607 54.7033 29.7119C54.4818 29.7631 54.2803 29.8782 54.1237 30.0429C53.9671 30.2076 53.8623 30.4147 53.8223 30.6384C53.7824 30.8622 53.809 31.0927 53.8988 31.3015C53.9887 31.5102 54.1379 31.688 54.3279 31.8127C54.5179 31.9374 54.7403 32.0036 54.9676 32.0031C55.6305 32.0072 56.124 31.5178 56.124 30.7868Z" fill="#C2C0C1"/>
<path d="M58.0032 27.9454H58.4162V32.348H58.0032V27.9454Z" fill="#C2C0C1"/>
<path d="M59.8782 30.7868C59.8786 30.4729 59.972 30.1662 60.1467 29.9053C60.3213 29.6445 60.5694 29.4413 60.8594 29.3214C61.1495 29.2014 61.4686 29.1701 61.7765 29.2315C62.0843 29.2928 62.3671 29.444 62.5891 29.666C62.811 29.8879 62.9622 30.1707 63.0236 30.4786C63.0849 30.7864 63.0536 31.1055 62.9337 31.3956C62.8138 31.6857 62.6105 31.9337 62.3497 32.1084C62.0889 32.283 61.7822 32.3765 61.4683 32.3769C61.2573 32.3847 61.0471 32.3489 60.8506 32.2718C60.6542 32.1946 60.4758 32.0778 60.3265 31.9285C60.1773 31.7793 60.0604 31.6009 59.9833 31.4044C59.9062 31.208 59.8704 30.9977 59.8782 30.7868ZM62.6247 30.7868C62.6137 30.5598 62.5364 30.341 62.4023 30.1575C62.2681 29.9741 62.083 29.834 61.87 29.7548C61.657 29.6756 61.4254 29.6607 61.2039 29.7119C60.9825 29.7631 60.781 29.8782 60.6244 30.0429C60.4678 30.2076 60.363 30.4147 60.323 30.6384C60.283 30.8622 60.3096 31.0927 60.3995 31.3015C60.4894 31.5102 60.6386 31.688 60.8286 31.8127C61.0185 31.9374 61.241 32.0036 61.4683 32.0031C62.1311 32.0072 62.6247 31.5178 62.6247 30.7868Z" fill="#C2C0C1"/>
<path d="M67.3928 29.2277V31.968C67.3928 33.0418 66.8662 33.5292 65.8337 33.5292C65.3097 33.5478 64.7965 33.377 64.3882 33.048L64.5947 32.728C64.9394 33.0138 65.3757 33.1656 65.8234 33.1554C66.6122 33.1554 66.9736 32.792 66.9736 32.0217V31.6232C66.8392 31.8188 66.6572 31.977 66.4448 32.0829C66.2324 32.1887 65.9965 32.2387 65.7594 32.2282C65.555 32.2384 65.3508 32.2066 65.1593 32.1345C64.9678 32.0625 64.7931 31.9519 64.6462 31.8096C64.4992 31.6673 64.383 31.4963 64.3049 31.3072C64.2268 31.1181 64.1884 30.915 64.192 30.7104C64.192 29.8142 64.8693 29.203 65.7594 29.203C66.0018 29.1907 66.2432 29.2413 66.4603 29.3499C66.6774 29.4584 66.8627 29.6212 66.9984 29.8225V29.2236L67.3928 29.2277ZM66.9798 30.7104C66.9872 30.4751 66.9242 30.2428 66.7988 30.0435C66.6735 29.8441 66.4915 29.6867 66.2762 29.5913C66.0608 29.496 65.8219 29.4671 65.5901 29.5083C65.3582 29.5495 65.1439 29.6589 64.9746 29.8226C64.8053 29.9863 64.6887 30.1968 64.6397 30.4271C64.5907 30.6575 64.6116 30.8972 64.6997 31.1156C64.7877 31.3341 64.9389 31.5212 65.1339 31.6532C65.329 31.7852 65.559 31.856 65.7945 31.8565C65.9497 31.867 66.1054 31.8448 66.2515 31.7915C66.3976 31.7382 66.531 31.6549 66.643 31.5469C66.7551 31.439 66.8433 31.3088 66.902 31.1647C66.9607 31.0207 66.9886 30.8659 66.9839 30.7104H66.9798Z" fill="#C2C0C1"/>
<path d="M69.0716 28.2427C69.0733 28.1626 69.1065 28.0863 69.1642 28.0306C69.2218 27.9749 69.2992 27.9443 69.3793 27.9454C69.4188 27.944 69.4582 27.9504 69.4952 27.9644C69.5322 27.9783 69.5661 27.9994 69.5948 28.0264C69.6236 28.0535 69.6468 28.086 69.663 28.1221C69.6791 28.1581 69.688 28.197 69.6891 28.2365C69.6891 28.3187 69.6564 28.3975 69.5984 28.4556C69.5403 28.5137 69.4615 28.5463 69.3793 28.5463C69.2972 28.5463 69.2184 28.5137 69.1603 28.4556C69.1022 28.3975 69.0696 28.3187 69.0696 28.2365L69.0716 28.2427ZM69.1666 29.2277H69.5796V32.348H69.1666V29.2277Z" fill="#C2C0C1"/>
<path d="M74.0732 30.919H71.463C71.4711 31.0706 71.5092 31.2191 71.5749 31.3559C71.6406 31.4928 71.7328 31.6153 71.846 31.7164C71.9592 31.8175 72.0913 31.8953 72.2346 31.9452C72.378 31.9951 72.5298 32.0162 72.6813 32.0073C72.8611 32.012 73.0398 31.9775 73.2049 31.9061C73.37 31.8348 73.5176 31.7284 73.6374 31.5943L73.8749 31.8669C73.7241 32.0352 73.538 32.1682 73.3299 32.2564C73.1218 32.3445 72.8968 32.3857 72.671 32.3769C71.6963 32.3769 71.0334 31.7141 71.0334 30.7869C71.0334 29.8597 71.6798 29.203 72.5574 29.203C73.4351 29.203 74.0711 29.8494 74.0711 30.7869C74.0794 30.824 74.0732 30.8715 74.0732 30.919ZM71.463 30.6031H73.6746C73.6537 30.3241 73.5281 30.0633 73.3231 29.873C73.118 29.6827 72.8486 29.577 72.5688 29.577C72.289 29.577 72.0196 29.6827 71.8145 29.873C71.6094 30.0633 71.4839 30.3241 71.463 30.6031Z" fill="#C2C0C1"/>
<path d="M75.0974 31.9928L75.2873 31.6603C75.6118 31.8902 76.0007 32.0117 76.3983 32.0073C76.993 32.0073 77.2367 31.8008 77.2367 31.4972C77.2367 30.6856 75.213 31.3258 75.213 30.0909C75.213 29.5809 75.6508 29.2009 76.452 29.2009C76.8393 29.1954 77.2206 29.2961 77.5547 29.4921L77.3709 29.8307C77.0991 29.6501 76.7783 29.5571 76.452 29.5643C75.8883 29.5643 75.6384 29.7832 75.6384 30.0785C75.6384 30.9211 77.6621 30.285 77.6621 31.4848C77.6621 32.0258 77.1871 32.3748 76.3735 32.3748C75.9179 32.39 75.4697 32.2558 75.0974 31.9928Z" fill="#C2C0C1"/>
</svg>
