<svg width="89" height="28" viewBox="0 0 89 28" fill="none" xmlns="http://www.w3.org/2000/svg">
<g clip-path="url(#clip0_86_3576)">
<path d="M81.3599 11.4559H84.6282V13.1299H84.6844C85.3878 11.8622 86.3037 11.1938 87.7448 11.1938C88.1055 11.185 88.4659 11.2215 88.8171 11.3026V14.2398C88.3668 14.1023 87.899 14.028 87.4275 14.019C84.9408 14.019 84.6266 15.437 84.6266 17.5111V21.8647H81.3599V11.4559Z" fill="#C2C0C1"/>
<path d="M78.9903 5.66595H75.722V21.8601H78.9903V5.66595Z" fill="#C2C0C1"/>
<path d="M65.3372 16.2924L61.8032 11.4559H65.6514L67.5364 14.2873L69.3479 11.4559H72.982L69.5558 16.2955L73.64 21.8647H69.7637L67.4348 18.3941L64.9715 21.8647H61.1233L65.3372 16.2924Z" fill="#C2C0C1"/>
<path d="M55.8371 11.4559H59.0835V21.8647H55.8371V11.4559ZM57.4627 6.31435C57.839 6.31526 58.2065 6.4256 58.5189 6.63143C58.8312 6.83725 59.0743 7.12929 59.2173 7.47063C59.3604 7.81196 59.397 8.18724 59.3226 8.54899C59.2482 8.91075 59.066 9.24272 58.7992 9.50293C58.5323 9.76313 58.1928 9.93987 57.8235 10.0108C57.4543 10.0817 57.0718 10.0436 56.7246 9.90135C56.3774 9.75907 56.0811 9.51899 55.873 9.21149C55.665 8.90399 55.5546 8.54287 55.5558 8.17383C55.5579 7.67861 55.7601 7.20442 56.1182 6.85526C56.4762 6.50609 56.9609 6.31047 57.4658 6.31128L57.4627 6.31435Z" fill="#C2C0C1"/>
<path d="M45.0773 13.6021L37.4325 6.575V21.8647H41.0446V14.6031L44.9991 18.201L49.0333 14.6138V21.8647H52.6454V6.55048L45.0773 13.6021Z" fill="#C2C0C1"/>
<path d="M16.3066 13.7646C16.3066 14.0981 16.2057 14.4241 16.0168 14.7014C15.8279 14.9787 15.5594 15.1948 15.2452 15.3225C14.931 15.4501 14.5853 15.4835 14.2518 15.4184C13.9183 15.3534 13.612 15.1928 13.3715 14.9569C13.131 14.7211 12.9673 14.4206 12.901 14.0935C12.8346 13.7664 12.8687 13.4274 12.9988 13.1193C13.1289 12.8111 13.3493 12.5478 13.632 12.3625C13.9148 12.1772 14.2472 12.0783 14.5873 12.0783C15.0432 12.0783 15.4806 12.256 15.803 12.5722C16.1254 12.8884 16.3066 13.3173 16.3066 13.7646Z" fill="#EBEAEA"/>
<path d="M16.3066 1.95157C16.3066 2.28508 16.2057 2.6111 16.0168 2.88841C15.8279 3.16571 15.5594 3.38184 15.2452 3.50947C14.931 3.6371 14.5853 3.67049 14.2518 3.60543C13.9183 3.54036 13.612 3.37976 13.3715 3.14394C13.131 2.90811 12.9673 2.60765 12.901 2.28055C12.8346 1.95344 12.8687 1.6144 12.9988 1.30627C13.1289 0.99815 13.3493 0.734793 13.632 0.549505C13.9148 0.364217 14.2472 0.26532 14.5873 0.26532C15.0432 0.26532 15.4806 0.442978 15.803 0.759212C16.1254 1.07545 16.3066 1.50435 16.3066 1.95157Z" fill="#EBEAEA"/>
<path d="M16.3066 7.85959C16.3066 8.1931 16.2057 8.51912 16.0168 8.79643C15.8279 9.07373 15.5594 9.28986 15.2452 9.41749C14.931 9.54512 14.5853 9.57851 14.2518 9.51345C13.9183 9.44838 13.612 9.28778 13.3715 9.05196C13.131 8.81613 12.9673 8.51567 12.901 8.18857C12.8346 7.86146 12.8687 7.52242 12.9988 7.21429C13.1289 6.90617 13.3493 6.64281 13.632 6.45752C13.9148 6.27224 14.2472 6.17334 14.5873 6.17334C15.0432 6.17334 15.4806 6.351 15.803 6.66723C16.1254 6.98347 16.3066 7.41237 16.3066 7.85959Z" fill="#C2C0C1"/>
<path d="M10.0546 2.69198C10.2234 2.98084 10.3012 3.31224 10.2782 3.64441C10.2553 3.97658 10.1326 4.29466 9.92563 4.55855C9.71866 4.82244 9.43667 5.02033 9.1152 5.12729C8.79374 5.23426 8.44718 5.24549 8.11921 5.15959C7.79125 5.07368 7.49655 4.89449 7.27226 4.64458C7.04797 4.39467 6.90412 4.08524 6.85886 3.75528C6.8136 3.42532 6.86894 3.0896 7.0179 2.79044C7.16687 2.49128 7.4028 2.24206 7.69596 2.0742C7.89195 1.96197 8.10866 1.88891 8.33358 1.85924C8.55851 1.82956 8.78719 1.84384 9.00646 1.90128C9.22573 1.95871 9.43123 2.05815 9.61112 2.19386C9.79101 2.32957 9.94172 2.49886 10.0546 2.69198Z" fill="#C2C0C1"/>
<path d="M5.01685 6.39714C5.31048 6.56489 5.54684 6.8142 5.69608 7.11361C5.84533 7.41302 5.90077 7.74908 5.8554 8.07937C5.81002 8.40966 5.66588 8.71935 5.44116 8.96935C5.21645 9.21934 4.92124 9.39842 4.59282 9.48397C4.2644 9.56952 3.91749 9.55771 3.59591 9.45002C3.27433 9.34234 2.9925 9.14361 2.786 8.87893C2.57951 8.61425 2.45761 8.2955 2.43571 7.96292C2.4138 7.63034 2.49287 7.29886 2.66293 7.01032C2.77617 6.8182 2.92696 6.64989 3.10665 6.51503C3.28635 6.38018 3.49142 6.28144 3.7101 6.22448C3.92878 6.16751 4.15678 6.15344 4.38102 6.18307C4.60526 6.2127 4.82134 6.28544 5.01685 6.39714Z" fill="#C2C0C1"/>
<path d="M2.53793 12.0691C2.87799 12.0691 3.2104 12.168 3.49314 12.3533C3.77588 12.5386 3.99626 12.8019 4.12639 13.11C4.25652 13.4182 4.29057 13.7572 4.22423 14.0843C4.15789 14.4114 3.99414 14.7119 3.75368 14.9477C3.51323 15.1835 3.20688 15.3441 2.87336 15.4092C2.53984 15.4743 2.19414 15.4409 1.87997 15.3132C1.56581 15.1856 1.29729 14.9695 1.10836 14.6922C0.91944 14.4149 0.818604 14.0889 0.818604 13.7553C0.818604 13.3081 0.999747 12.8792 1.32218 12.563C1.64462 12.2468 2.08194 12.0691 2.53793 12.0691Z" fill="#C2C0C1"/>
<path d="M3.29291 18.201C3.5871 18.0343 3.92502 17.9569 4.26403 17.9785C4.60303 18.0001 4.92792 18.1197 5.19769 18.3222C5.46745 18.5247 5.67 18.801 5.77978 19.1164C5.88955 19.4317 5.90162 19.7718 5.81447 20.0938C5.72731 20.4159 5.54484 20.7054 5.29009 20.9258C5.03533 21.1462 4.71971 21.2876 4.38305 21.3323C4.0464 21.3769 3.70381 21.3228 3.39852 21.1766C3.09322 21.0305 2.83892 20.7989 2.6677 20.5111C2.55357 20.3193 2.4792 20.1073 2.44885 19.8872C2.41851 19.6671 2.4328 19.4433 2.49089 19.2286C2.54899 19.014 2.64974 18.8127 2.78738 18.6363C2.92501 18.46 3.09681 18.312 3.29291 18.201Z" fill="#C2C0C1"/>
<path d="M7.0707 23.1478C7.24174 22.8598 7.49595 22.628 7.80123 22.4817C8.10651 22.3353 8.44916 22.2809 8.78593 22.3254C9.1227 22.3699 9.43846 22.5113 9.69336 22.7317C9.94826 22.9521 10.1309 23.2416 10.2181 23.5637C10.3053 23.8858 10.2933 24.226 10.1835 24.5414C10.0737 24.8568 9.87104 25.1332 9.60117 25.3357C9.3313 25.5383 9.0063 25.6578 8.6672 25.6793C8.3281 25.7008 7.99011 25.6232 7.69591 25.4565C7.50002 25.3454 7.32841 25.1975 7.19091 25.0213C7.05341 24.845 6.95273 24.6439 6.89465 24.4294C6.83657 24.2149 6.82222 23.9913 6.85243 23.7714C6.88264 23.5515 6.95682 23.3396 7.0707 23.1478Z" fill="#C2C0C1"/>
<path d="M12.8539 25.5744C12.8539 25.2409 12.9547 24.9149 13.1436 24.6376C13.3326 24.3603 13.6011 24.1442 13.9153 24.0165C14.2294 23.8889 14.5751 23.8555 14.9086 23.9206C15.2422 23.9856 15.5485 24.1462 15.789 24.3821C16.0294 24.6179 16.1932 24.9184 16.2595 25.2455C16.3258 25.5726 16.2918 25.9116 16.1617 26.2197C16.0315 26.5279 15.8112 26.7912 15.5284 26.9765C15.2457 27.1618 14.9133 27.2607 14.5732 27.2607C14.1172 27.2607 13.6799 27.083 13.3575 26.7668C13.035 26.4506 12.8539 26.0217 12.8539 25.5744Z" fill="#C2C0C1"/>
<path d="M19.106 24.8371C18.936 24.5486 18.8569 24.2171 18.8788 23.8845C18.9007 23.5519 19.0226 23.2332 19.2291 22.9685C19.4356 22.7038 19.7174 22.5051 20.039 22.3974C20.3606 22.2897 20.7075 22.2779 21.0359 22.3635C21.3644 22.449 21.6596 22.6281 21.8843 22.8781C22.109 23.1281 22.2531 23.4378 22.2985 23.7681C22.3439 24.0983 22.2884 24.4344 22.1392 24.7338C21.99 25.0332 21.7536 25.2825 21.46 25.4503C21.2644 25.562 21.0484 25.6347 20.8241 25.6644C20.5999 25.694 20.3719 25.6799 20.1532 25.6229C19.9345 25.566 19.7295 25.4672 19.5498 25.3324C19.3701 25.1975 19.2193 25.0292 19.106 24.8371Z" fill="#C2C0C1"/>
<path d="M24.15 21.1335C23.8563 20.9658 23.62 20.7164 23.4707 20.417C23.3215 20.1176 23.266 19.7816 23.3114 19.4513C23.3568 19.121 23.5009 18.8113 23.7256 18.5613C23.9504 18.3113 24.2456 18.1322 24.574 18.0467C24.9024 17.9611 25.2493 17.9729 25.5709 18.0806C25.8925 18.1883 26.1743 18.387 26.3808 18.6517C26.5873 18.9164 26.7092 19.2352 26.7311 19.5677C26.753 19.9003 26.6739 20.2318 26.5039 20.5203C26.3906 20.7125 26.2399 20.8808 26.0602 21.0156C25.8805 21.1505 25.6754 21.2492 25.4567 21.3062C25.238 21.3631 25.01 21.3772 24.7858 21.3476C24.5615 21.318 24.3455 21.2452 24.15 21.1335Z" fill="#C2C0C1"/>
<path d="M26.6242 15.4554C26.2842 15.4554 25.9518 15.3565 25.669 15.1712C25.3863 14.9859 25.1659 14.7226 25.0358 14.4144C24.9057 14.1063 24.8716 13.7673 24.9379 13.4402C25.0043 13.1131 25.168 12.8126 25.4085 12.5768C25.6489 12.341 25.9553 12.1804 26.2888 12.1153C26.6223 12.0502 26.968 12.0836 27.2822 12.2112C27.5964 12.3389 27.8649 12.555 28.0538 12.8323C28.2427 13.1096 28.3436 13.4356 28.3436 13.7691C28.3436 14.2164 28.1624 14.6453 27.84 14.9615C27.5176 15.2777 27.0802 15.4554 26.6242 15.4554Z" fill="#EBEAEA"/>
<path d="M25.8724 9.32358C25.5782 9.49037 25.2402 9.56791 24.9011 9.54643C24.562 9.52495 24.237 9.4054 23.9671 9.20287C23.6973 9.00035 23.4946 8.72394 23.3848 8.40855C23.275 8.09315 23.263 7.75292 23.3502 7.43082C23.4374 7.10871 23.62 6.81918 23.8749 6.59879C24.1298 6.3784 24.4456 6.23703 24.7824 6.19253C25.1191 6.14803 25.4618 6.2024 25.7671 6.34878C26.0724 6.49515 26.3266 6.72696 26.4976 7.01494C26.6115 7.2067 26.6857 7.41861 26.7159 7.63854C26.7461 7.85846 26.7317 8.08208 26.6736 8.29655C26.6156 8.51103 26.5149 8.71215 26.3774 8.88839C26.2399 9.06463 26.0683 9.21252 25.8724 9.32358Z" fill="#EBEAEA"/>
<path d="M22.0961 4.38284C21.9251 4.67081 21.6709 4.90263 21.3656 5.049C21.0603 5.19538 20.7176 5.24975 20.3809 5.20525C20.0441 5.16075 19.7283 5.01938 19.4734 4.79899C19.2186 4.5786 19.036 4.28907 18.9487 3.96696C18.8615 3.64486 18.8735 3.30463 18.9833 2.98923C19.0931 2.67384 19.2958 2.39743 19.5656 2.19491C19.8355 1.99238 20.1605 1.87283 20.4996 1.85135C20.8387 1.82986 21.1767 1.90741 21.4709 2.0742C21.6668 2.18526 21.8384 2.33315 21.9759 2.50939C22.1134 2.68563 22.2141 2.88675 22.2722 3.10123C22.3302 3.3157 22.3446 3.53932 22.3144 3.75924C22.2842 3.97917 22.21 4.19108 22.0961 4.38284Z" fill="#EBEAEA"/>
<path d="M10.2312 9.34965C10.5248 9.5174 10.7612 9.76672 10.9104 10.0661C11.0597 10.3655 11.1151 10.7016 11.0698 11.0319C11.0244 11.3622 10.8802 11.6719 10.6555 11.9219C10.4308 12.1719 10.1356 12.3509 9.80717 12.4365C9.47875 12.522 9.13185 12.5102 8.81027 12.4025C8.48869 12.2949 8.20685 12.0961 8.00036 11.8314C7.79386 11.5668 7.67197 11.248 7.65006 10.9154C7.62816 10.5829 7.70723 10.2514 7.87729 9.96284C7.99052 9.77071 8.14131 9.6024 8.32101 9.46755C8.5007 9.3327 8.70577 9.23396 8.92446 9.17699C9.14314 9.12002 9.37114 9.10595 9.59538 9.13558C9.81962 9.16521 10.0357 9.23796 10.2312 9.34965Z" fill="#C2C0C1"/>
<path d="M8.50714 15.2531C8.80133 15.0865 9.13926 15.0091 9.47826 15.0306C9.81727 15.0522 10.1422 15.1718 10.4119 15.3743C10.6817 15.5768 10.8842 15.8532 10.994 16.1685C11.1038 16.4838 11.1159 16.8239 11.0287 17.146C10.9415 17.468 10.7591 17.7575 10.5043 17.9779C10.2496 18.1983 9.93394 18.3398 9.59729 18.3844C9.26063 18.429 8.91804 18.3749 8.61275 18.2287C8.30746 18.0826 8.05315 17.851 7.88193 17.5632C7.7678 17.3714 7.69343 17.1594 7.66309 16.9393C7.63275 16.7192 7.64703 16.4954 7.70512 16.2808C7.76322 16.0661 7.86398 15.8648 8.00161 15.6885C8.13924 15.5121 8.31104 15.3641 8.50714 15.2531Z" fill="#C2C0C1"/>
<path d="M12.8539 19.6695C12.8539 19.336 12.9547 19.01 13.1436 18.7327C13.3326 18.4554 13.6011 18.2393 13.9153 18.1116C14.2294 17.984 14.5751 17.9506 14.9086 18.0157C15.2422 18.0807 15.5485 18.2413 15.789 18.4772C16.0294 18.713 16.1932 19.0135 16.2595 19.3406C16.3258 19.6677 16.2918 20.0067 16.1617 20.3148C16.0315 20.623 15.8112 20.8863 15.5284 21.0716C15.2457 21.2569 14.9133 21.3558 14.5732 21.3558C14.1172 21.3558 13.6799 21.1781 13.3575 20.8619C13.035 20.5457 12.8539 20.1168 12.8539 19.6695Z" fill="#C2C0C1"/>
<path d="M18.9356 18.181C18.642 18.0133 18.4056 17.7639 18.2564 17.4645C18.1071 17.1651 18.0517 16.8291 18.0971 16.4988C18.1424 16.1685 18.2866 15.8588 18.5113 15.6088C18.736 15.3588 19.0312 15.1797 19.3596 15.0942C19.6881 15.0086 20.035 15.0204 20.3565 15.1281C20.6781 15.2358 20.96 15.4345 21.1665 15.6992C21.3729 15.9639 21.4948 16.2826 21.5168 16.6152C21.5387 16.9478 21.4596 17.2793 21.2895 17.5678C21.1763 17.7599 21.0255 17.9282 20.8458 18.0631C20.6661 18.198 20.461 18.2967 20.2424 18.3537C20.0237 18.4106 19.7957 18.4247 19.5714 18.3951C19.3472 18.3654 19.1311 18.2927 18.9356 18.181Z" fill="#C2C0C1"/>
<path d="M20.6582 12.276C20.364 12.4428 20.026 12.5204 19.6869 12.4989C19.3478 12.4774 19.0228 12.3579 18.7529 12.1553C18.483 11.9528 18.2804 11.6764 18.1706 11.361C18.0608 11.0456 18.0488 10.7054 18.136 10.3833C18.2232 10.0612 18.4058 9.77164 18.6607 9.55125C18.9156 9.33085 19.2314 9.18948 19.5681 9.14498C19.9049 9.10048 20.2476 9.15486 20.5528 9.30123C20.8581 9.4476 21.1123 9.67942 21.2834 9.9674C21.3972 10.1592 21.4714 10.3711 21.5016 10.591C21.5318 10.8109 21.5175 11.0345 21.4594 11.249C21.4013 11.4635 21.3007 11.6646 21.1632 11.8408C21.0257 12.0171 20.854 12.165 20.6582 12.276Z" fill="#C2C0C1"/>
</g>
<defs>
<clipPath id="clip0_86_3576">
<rect width="88" height="27" fill="white" transform="translate(0.818604 0.26532)"/>
</clipPath>
</defs>
</svg>
