<svg width="31" height="31" viewBox="0 0 31 31" fill="none" xmlns="http://www.w3.org/2000/svg">
<path d="M12.641 2.99478C13.5272 0.20647 17.4728 0.206465 18.359 2.99478L19.8869 7.80137C20.2827 9.04674 21.4391 9.89261 22.7459 9.89261H27.8278C30.718 9.89261 31.9368 13.5778 29.6165 15.301L25.3925 18.4381C24.3641 19.2019 23.9342 20.5345 24.3222 21.7553L25.9087 26.7466C26.791 29.5222 23.5991 31.8003 21.261 30.0638L17.2887 27.1137C16.2267 26.3249 14.7733 26.3249 13.7113 27.1137L9.73903 30.0638C7.40092 31.8003 4.20905 29.5222 5.09128 26.7466L6.67779 21.7553C7.06585 20.5345 6.63588 19.2019 5.60746 18.4381L1.38346 15.301C-0.936805 13.5778 0.281993 9.89261 3.17217 9.89261H8.2541C9.56086 9.89261 10.7173 9.04674 11.1131 7.80137L12.641 2.99478Z" fill="#D9D9D9"/>
<path d="M12.641 2.99478C13.5272 0.20647 17.4728 0.206465 18.359 2.99478L19.8869 7.80137C20.2827 9.04674 21.4391 9.89261 22.7459 9.89261H27.8278C30.718 9.89261 31.9368 13.5778 29.6165 15.301L25.3925 18.4381C24.3641 19.2019 23.9342 20.5345 24.3222 21.7553L25.9087 26.7466C26.791 29.5222 23.5991 31.8003 21.261 30.0638L17.2887 27.1137C16.2267 26.3249 14.7733 26.3249 13.7113 27.1137L9.73903 30.0638C7.40092 31.8003 4.20905 29.5222 5.09128 26.7466L6.67779 21.7553C7.06585 20.5345 6.63588 19.2019 5.60746 18.4381L1.38346 15.301C-0.936805 13.5778 0.281993 9.89261 3.17217 9.89261H8.2541C9.56086 9.89261 10.7173 9.04674 11.1131 7.80137L12.641 2.99478Z" fill="url(#paint0_linear_63_502)"/>
<defs>
<linearGradient id="paint0_linear_63_502" x1="15.5" y1="-6" x2="-12.0061" y2="15.0958" gradientUnits="userSpaceOnUse">
<stop stop-color="#FFA501"/>
<stop offset="1" stop-color="#FF6602"/>
</linearGradient>
</defs>
</svg>
