<svg width="195" height="123" viewBox="0 0 195 123" fill="none" xmlns="http://www.w3.org/2000/svg">
<g filter="url(#filter0_g_58_512)">
<path d="M87.9295 117.932C25.5531 116.031 33.0813 13.681 47.8688 16.3958C57.4937 18.1629 58.2792 34.9057 57.031 47.6168C58.0995 37.3908 64.6996 20.7939 82.5521 36.2143C90.618 26.4408 100.566 30.2416 103.255 38.9292C120.193 30.5131 130.311 42.4585 127 63.9059C135.747 52.1212 151.354 42.3931 164.287 47.6168C179.074 53.5895 164.287 66.3493 149.499 73.9509C134.712 81.5525 150.306 119.832 87.9295 117.932Z" fill="#FFF9F5"/>
<path d="M55.9347 55.4899C56.3523 53.2295 56.745 50.5289 57.031 47.6168M114.816 100.557C115.106 96.7506 116.214 89.3225 118.591 81.5525M57.031 47.6168C58.2792 34.9057 57.4937 18.1629 47.8688 16.3958C33.0813 13.681 25.5531 116.031 87.9295 117.932C150.306 119.832 134.712 81.5525 149.499 73.9509C164.287 66.3493 179.074 53.5895 164.287 47.6168C151.354 42.3931 135.747 52.1212 127 63.9059M57.031 47.6168C58.0995 37.3908 64.6996 20.7939 82.5521 36.2143C90.618 26.4408 100.566 30.2416 103.255 38.9292C120.193 30.5131 130.311 42.4585 127 63.9059M127 63.9059C125.746 65.5957 124.632 67.3278 123.688 69.0642C121.563 72.9738 119.888 77.314 118.591 81.5525M100.088 83.4374C103.921 88.5052 111.864 93.7151 118.591 81.5525M80.6701 83.4374C82.2867 86.7392 85.289 89.5265 88.7137 90.3008C102.869 93.5012 92.7154 65.4668 103.255 55.4899V55.4899M82.5521 47.6168C85.3855 55.5777 88.1849 69.4204 84.2125 78.4279C80.5883 86.6456 66.9317 85.7731 65.1986 76.9605C64.4187 72.9952 65.3378 68.8998 66.4203 66.3493" stroke="#FF7E29" stroke-width="4" stroke-linecap="round"/>
</g>
<path d="M155.405 28.8152C155.532 28.5427 155.878 28.648 156.192 28.8546C156.289 28.9184 156.41 29.3263 156.485 29.3882C156.63 29.5086 156.635 29.2836 156.791 29.4337C156.844 29.4854 157.052 30.1252 157.101 30.165C157.371 30.3787 157.463 30.1595 157.679 30.2284C157.975 30.3229 158.257 30.3849 158.531 30.4246C159.245 30.5279 159.9 30.4785 160.58 30.4499C160.851 30.438 161.309 30.7713 161.544 30.6148C161.578 30.5923 161.607 30.5599 161.63 30.5149C161.652 30.4724 161.417 29.931 161.406 29.8833C161.234 29.1518 161.634 30.2732 161.756 30.3954C162.239 30.877 162.543 30.8167 162.707 30.5086C162.776 30.3759 162.246 29.3257 162.59 29.897C162.614 29.9355 162.814 30.5294 162.867 30.5804C162.987 30.6949 163.07 30.5425 163.139 30.569C163.272 30.6232 163.286 30.6111 163.381 30.5819C163.513 30.547 163.775 30.779 163.86 30.5943C163.877 30.5531 163.607 29.9694 163.614 29.8497C163.62 29.7301 163.763 29.7334 163.858 29.8586C163.954 29.9839 164.118 30.4612 164.167 30.5663C164.579 31.4535 164.233 30.138 164.24 30.0997C164.247 30.0634 164.255 30.0309 164.265 30.0019C164.429 29.5049 164.947 30.0423 165.241 29.9275C165.478 29.8337 165.641 29.4992 165.881 29.4459C166.167 29.3846 166.518 29.6236 166.76 29.469C166.786 29.4534 166.488 28.759 166.52 28.7385C166.583 28.6968 166.648 28.661 166.716 28.6328C167.004 28.5137 167.342 28.5296 167.777 28.8086C167.831 28.8438 168.013 29.4827 168.081 29.5551C168.491 29.9842 169.284 31.0871 168.429 28.3284C168.618 28.3795 168.841 28.4225 169.173 28.9211C169.386 29.2421 169.547 29.9514 169.548 29.6235C169.549 29.5503 169.304 28.9667 169.321 28.9019C169.386 28.6628 169.575 28.7369 169.648 28.5143C169.658 28.4833 169.666 28.4466 169.671 28.4024C169.679 28.3275 169.48 27.7969 169.455 27.6977C169.252 26.8931 169.831 28.1366 169.89 28.2209C170.339 28.8471 170.388 28.521 170.583 28.4722C170.628 28.4612 170.325 27.761 170.36 27.7245C170.542 27.5453 170.794 27.5275 171.12 27.7725C171.193 27.8288 171.358 28.4571 171.404 28.5154C171.601 28.7652 171.229 27.599 171.411 27.8162C171.449 27.8605 171.616 28.3898 171.639 28.4462C172.005 29.3322 171.62 28.0316 171.625 27.9981C171.684 27.5463 172.255 28.8468 172.372 28.5964C172.385 28.565 172.114 27.9156 172.166 27.8682C172.222 27.8162 172.282 27.7737 172.345 27.7409C172.5 27.6606 172.699 27.6302 172.914 27.6604C173.132 27.6901 173.375 27.7789 173.628 27.9313C173.653 27.9459 173.677 27.961 173.701 27.9767C173.799 28.0397 173.881 28.5638 173.903 28.6252C174.236 29.5877 173.937 28.2594 173.952 28.2026C174.026 27.9271 174.257 28.323 174.328 28.1174C174.365 28.0178 174.367 27.7773 174.313 27.2499C174.512 27.3161 174.702 27.3375 174.894 27.3384C175.148 27.3398 175.406 27.3055 175.681 27.2961C175.929 27.2854 176.31 27.306 176.541 27.4076C176.785 27.5336 177.08 27.7954 177.265 28.3079C177.273 28.3261 177.15 28.9853 177.164 29.0186C177.332 29.4278 177.455 28.3924 177.856 27.1703C177.916 26.9902 177.888 27.4469 177.848 27.8761C177.82 28.1773 177.787 28.4651 177.782 28.5115C177.739 28.9266 177.506 29.8969 177.503 29.9783C177.472 30.6168 178.114 27.3816 178.272 27.4139C178.275 27.4203 178.129 28.0097 178.129 28.0713C178.127 28.2647 178.216 28.0373 178.208 28.2495C178.19 28.7409 177.857 30.3082 178.186 29.4275C178.229 29.3135 178.633 27.4862 178.746 27.6044C178.79 27.6526 179.029 27.6796 179.062 27.8138C179.095 27.9476 178.898 28.5192 178.896 28.5457C178.886 28.7657 178.867 28.9482 178.841 29.1203C178.768 29.5853 178.647 29.9759 178.477 30.8221C178.24 31.976 178.96 29.266 179.076 28.9734C179.193 28.6818 179.134 29.3483 179.098 29.5759C179.064 29.8038 178.924 30.1624 178.913 30.2938C178.838 31.1522 179.37 28.977 179.55 28.5657C179.983 27.5943 179.496 29.6192 179.548 29.8482C179.563 29.9104 179.676 29.4496 179.717 29.4159C179.851 29.311 179.788 29.7296 179.933 29.581C179.964 29.5497 180.004 29.4932 180.057 29.4015C180.106 29.3153 180.593 28.1584 180.379 29.0534C180.347 29.1822 180.161 29.6667 180.172 29.7923C180.188 29.9807 180.277 30.129 180.406 29.9893C180.501 29.886 180.707 29.0547 180.694 29.3297C180.687 29.4523 180.472 29.9071 180.472 30.0979C180.472 30.2884 180.624 30.3165 180.685 30.319C180.745 30.3211 180.924 29.6977 180.943 29.6579C181.05 29.4305 181.259 29.1716 181.268 29.1756C181.274 29.1768 181.281 29.1781 181.287 29.1795C181.675 29.2714 181.8 30.0207 182.118 30.2277C182.198 30.2802 182.292 30.298 182.405 30.2604C182.449 30.2465 182.649 29.5929 182.658 29.5841C182.87 29.3547 182.184 31.0389 182.071 31.6428C182.509 30.328 182.477 30.5824 182.61 30.4673C182.675 30.4107 182.826 29.8952 182.848 29.8445C183.169 29.0928 182.87 30.1033 182.812 30.3112C182.598 31.0752 182.94 30.2026 182.798 30.7137C182.659 31.2213 182.348 31.9389 182.434 31.9572C182.613 31.4941 182.964 30.2442 183.091 30.0651C183.216 29.8881 183.315 29.8326 183.397 29.8499C183.614 29.8946 183.682 30.515 183.804 30.6317C183.958 30.7858 184.045 30.7149 184.105 30.9178C184.119 30.9627 184.133 30.988 184.149 30.9971C184.263 31.062 184.43 30.29 184.64 29.9469C184.88 29.5561 184.195 31.8229 184.079 32.3186C183.963 32.8141 184.12 32.3144 184.069 32.5902C184.018 32.8659 183.878 33.1866 183.903 33.3021C183.929 33.4177 184.308 32.5831 184.466 32.0748C184.801 30.9977 185.047 29.8386 185.076 30.2774C185.078 30.3034 184.888 30.8969 184.902 30.9659C184.964 31.2484 185.063 31.4077 185.162 31.568C185.247 31.7071 185.333 31.8471 185.392 32.0685C185.409 32.1349 185.191 32.7929 185.199 32.839C185.276 33.3213 185.524 32.1779 185.996 30.9644C185.493 32.6154 185.261 33.6472 185.403 33.6996C185.489 33.732 185.688 33.0049 185.899 32.5136C185.963 32.3656 185.878 32.8804 185.992 32.5447C186.304 31.6369 186.573 30.6169 186.666 30.6018C186.685 30.5987 186.697 30.6391 186.7 30.7331C186.7 30.7587 186.489 31.3576 186.503 31.402C186.587 31.6918 186.971 30.5418 187.201 30.4621C187.384 30.4001 187.403 31.1874 187.52 31.3577C186.945 32.9592 187.089 32.8702 187.492 31.9953C187.549 31.8726 187.61 31.7344 187.676 31.5832C187.76 31.6732 187.9 31.6465 187.932 31.8586C187.943 31.9309 187.711 32.443 187.693 32.5011C187.397 33.4085 187.93 32.2203 187.973 32.1833C188.415 31.8301 188.193 32.8113 188.842 32.0563C188.849 32.0481 188.911 31.9312 188.983 31.7984C189.147 31.4941 189.369 31.1086 189.108 31.7438C189.08 31.8056 188.728 32.315 188.815 32.4123C188.911 32.5143 188.748 33.2468 189.206 32.7934C189.312 32.6807 190.003 31.8204 189.627 32.5946C189.574 32.6986 189.352 33.0154 189.248 33.2045C188.91 33.8022 189.698 32.6894 189.094 33.6779C188.573 34.523 188.17 35.1893 188.428 35.0074C188.471 34.977 188.533 34.9231 188.616 34.8431C188.632 34.8262 189.312 33.9868 189.342 34.0325C189.387 34.1041 189.324 34.3466 189.383 34.3917C189.413 34.4135 189.844 33.8988 189.856 33.8939C190.329 33.8283 190.062 34.3798 190.029 34.7484C190.029 34.7547 190.029 34.761 190.028 34.7673C190.019 34.8315 190.825 34.3707 190.324 34.9022C189.766 35.4731 187.117 37.428 187.837 37.0793C188.115 36.927 191.571 34.5766 189.912 35.9779C190.024 35.9695 190.092 35.9916 190.133 36.0323C190.324 36.2218 189.932 36.7797 190.607 36.6643C190.644 36.6583 191.645 36.0601 191.651 36.0984C191.659 36.1564 191.218 36.4788 191.209 36.5298C191.2 36.5675 191.207 36.5948 191.223 36.6151C191.305 36.7141 191.63 36.6425 191.648 36.7788C191.658 36.8406 191.179 37.138 191.192 37.2131C191.206 37.2889 191.844 36.908 191.601 37.1862C191.414 37.397 190.215 38.3274 190.134 38.5186C191.335 37.6665 191.367 37.7244 191.736 37.5914C191.742 37.5893 191.748 37.5872 191.754 37.585C191.828 37.5569 192.234 37.2293 192.29 37.1999C192.529 37.0714 192.205 37.3591 192.461 37.2133C192.522 37.1781 192.93 36.87 193.002 36.8232C193.633 36.4101 192.78 37.1836 192.637 37.3258C192.086 37.853 192.624 37.4617 192.425 37.691C192.231 37.9244 191.889 38.0989 191.793 38.2672C191.599 38.6199 191.795 38.7165 191.887 38.8436C191.926 38.8926 192.382 38.3838 192.399 38.3799C192.441 38.3716 192.456 38.3898 192.462 38.4162C192.484 38.5159 192.396 38.758 193.149 37.9828C190.885 40.6664 193.426 37.7748 193.066 38.3865C193.036 38.4354 192.032 39.758 191.824 39.9041C191.613 40.0468 191.869 39.5847 191.55 39.8096C191.481 39.8684 190.322 40.9171 190.236 40.9647C189.594 41.3713 191.317 39.5835 191.41 39.4845C191.421 39.4729 191.431 39.4615 191.441 39.4504C192.371 38.4167 191.114 39.4779 190.993 39.5168C190.477 39.7419 190.634 39.39 190.25 39.5209C190 39.6028 188.732 40.619 188.713 40.5169C188.657 40.2113 190.048 39.0536 189.154 39.4927C189.042 39.5469 188.893 39.6255 188.7 39.7326C188.332 39.9389 186.92 41.0184 187.942 40.047C188.005 39.9833 188.975 39.1411 188.27 39.5431C188.181 39.5935 187.756 39.8887 187.713 39.903C187.432 39.9923 187.741 39.7126 187.527 39.7501C187.314 39.7874 187.01 39.8631 187.103 39.6853C187.158 39.5784 187.923 38.9869 188.106 38.8356C188.475 38.5308 188.11 38.7083 188.084 38.6746C188.073 38.6602 188.125 38.607 188.325 38.4604C188.993 37.9704 190.091 37.3517 190.477 36.9647C189.349 37.6978 188.189 38.4457 187.053 39.1806C186.957 38.9462 187.199 38.5225 187.036 38.3866C187.015 38.3708 186.43 38.7955 186.392 38.7898C186.314 38.7774 186.371 38.6812 186.417 38.5917C186.463 38.5028 186.5 38.4208 186.389 38.4412C186.214 38.4733 185.554 38.8674 185.372 38.9463C186.582 37.9953 186.11 38.2377 186.193 38.1184C186.221 38.075 186.539 37.8146 186.633 37.7187C186.98 37.3605 185.957 38.2572 185.788 38.3886C185.758 38.4126 185.733 38.4321 185.713 38.4474C185.278 38.806 187.388 36.9331 187.277 36.9211C187.266 36.9138 186.064 38.0305 185.997 38.109C185.524 38.5778 186.401 37.705 186.483 37.6156C186.641 37.4594 186.909 37.1741 186.605 37.544C186.509 37.6497 185.889 38.461 186.367 37.8291C186.429 37.7458 186.76 37.3165 186.778 37.2899C186.873 37.1414 186.819 37.1868 186.697 37.3345C186.444 37.6303 185.908 38.3438 185.673 38.6512C185.326 39.1138 186.012 38.16 186.193 37.8726C186.672 37.1388 186.405 37.5628 186.454 37.492C187.04 36.6514 186.918 36.7825 186.95 36.7012C187.857 35.2976 187.749 35.3485 186.979 36.6213C186.893 36.7596 186.988 36.6349 186.95 36.7012C186.04 38.0664 185.994 38.284 186.709 36.9272C187.043 36.2914 187.481 35.5763 187.239 35.7925C187.131 35.8912 186.602 36.9135 186.429 37.1765C186.267 37.4233 186.246 37.404 186.259 37.2995C186.279 37.15 186.366 36.8238 186.274 36.8916C186.22 36.934 185.988 37.5204 185.943 37.5699C185.827 37.7051 185.968 37.2513 185.818 37.4507C185.804 37.4697 185.56 38.0823 185.542 38.0836C185.433 38.1001 185.427 37.8616 185.363 37.709C185.342 37.6568 185.314 37.6151 185.274 37.5976C185.198 37.5645 184.938 37.8594 184.876 37.762C184.795 37.639 184.824 37.0662 184.749 36.8535C184.724 36.7805 184.687 36.7503 184.632 36.796C184.493 36.9099 184.326 37.5483 184.159 37.9672C183.838 38.7806 184.133 37.2421 184.177 37.0035C184.179 36.9956 184.308 36.871 184.356 36.5325C184.523 35.8468 184.179 37.0007 184.177 37.0035C184.208 36.8499 184.073 36.6559 184.003 36.7672C183.965 36.8282 183.807 37.4328 183.791 37.4532C183.665 37.6066 183.55 37.7192 183.447 37.7896C183.23 37.9357 183.058 37.8976 182.93 37.6584C182.929 37.645 183.119 36.9725 183.114 36.9493C183.042 36.6077 182.716 37.4052 182.447 37.8577C182.312 38.0842 182.229 38.1486 182.207 38.0076C182.187 37.8673 182.229 37.524 182.35 36.936C182.202 37.0517 182.193 36.4976 182.191 36.162C182.192 35.8271 181.796 37.1286 181.78 37.1519C181.27 37.8799 181.284 37.1227 181.08 36.9035C181.076 36.8989 181.072 36.8946 181.068 36.8905C180.976 36.7972 180.68 36.9064 180.502 37.0029C180.362 37.0818 180.405 36.7596 180.252 36.9222C180.231 36.9439 180.046 37.5208 180.034 37.5416C179.699 38.1925 180.23 36.8091 180.295 36.5521C180.536 35.6178 180.661 35.1189 180.391 35.5041C180.351 35.5614 180.006 36.42 179.745 37.0415C179.604 37.3763 179.487 37.6424 179.455 37.6774C179.336 37.8038 179.613 37.0909 179.484 37.2418C179.473 37.2541 179.319 37.6996 179.284 37.6654C179.119 37.5122 179.004 37.1816 178.8 37.1608C178.773 37.1563 178.561 37.8743 178.518 37.8795C178.443 37.8883 178.373 37.8819 178.311 37.8509C178.206 37.798 178.127 37.6734 178.098 37.4305C178.087 37.3336 178.278 36.8454 178.319 36.6952C178.565 35.7854 178.058 37.0572 178.039 37.0783C177.762 37.3773 177.703 37.1131 177.618 36.9111C177.554 36.7558 177.474 36.6375 177.288 36.8493C177.261 36.8771 176.747 38.2529 177.054 37.0337C177.075 36.9528 177.382 35.7031 177.1 36.5369C177.083 36.5892 176.929 37.2336 176.9 37.1553C176.869 37.0765 176.68 37.483 176.806 36.7639C176.808 36.7517 176.811 36.7366 176.814 36.7191C176.875 36.4098 177.101 35.3351 176.801 36.2569C176.773 36.3233 176.131 38.5455 176.486 36.9903C176.544 36.7343 176.946 35.0951 176.672 35.9192C176.62 36.0794 176.556 36.4511 176.469 36.6722C176.339 37.0137 176.372 36.5576 176.159 37.281C176.119 37.4086 175.852 38.5229 175.999 37.6658C176.022 37.5314 176.143 36.9809 176.139 36.9158C176.135 36.8584 176.127 36.8235 176.116 36.8023C176.066 36.7081 175.972 36.8871 175.966 36.5637C175.962 36.4243 176.119 35.527 176.125 35.2808C176.132 35.0349 176.111 34.7947 176.032 35.204C175.957 35.614 175.798 37.0576 175.762 37.1696C175.721 37.2951 175.672 37.3289 175.608 37.3084C175.635 37.2944 176.031 37.1323 176.048 36.9644C176.115 36.8434 176.151 36.7279 176.175 36.6858C176.186 36.6658 176.237 37.1829 176.261 37.1897C176.264 37.1908 176.268 37.1924 176.271 37.1946C176.307 37.2194 176.342 37.3111 176.328 37.321C176.315 37.3308 176.251 37.2588 176.106 36.9479C176.07 36.8707 176.029 36.7785 175.983 36.669C175.624 35.8524 175.59 35.1616 175.39 34.845C175.286 34.6968 175.718 36.3296 175.724 36.3834C175.732 36.4909 175.727 36.5514 175.712 36.5813C175.653 36.7046 175.432 36.3047 175.378 36.517C175.363 36.5721 175.608 37.2117 175.592 37.2514C175.579 37.2881 175.556 37.2984 175.527 37.295C175.442 37.2859 175.318 37.1611 175.263 37.2234C175.23 37.2626 175.403 37.7555 175.353 37.73C175.234 37.6746 175.084 37.4932 174.84 37.0587C174.818 37.0192 174.665 36.3849 174.59 36.3847C174.47 36.3858 174.181 35.974 174.219 36.4883C174.231 36.6429 174.616 37.7731 174.272 37.0196C174.2 36.8622 173.755 35.4988 174.066 36.7019C174.117 36.9022 174.512 38.5338 174.084 37.5419C173.972 37.2808 173.536 36.1901 173.552 36.3799C173.555 36.4097 173.79 37.0072 173.774 37.079C173.714 37.3217 173.556 37.3044 173.49 37.5406C173.473 37.6048 173.745 38.2125 173.713 38.2882C173.624 38.4971 173.388 38.4015 173.177 38.2562C173.099 38.2014 172.95 37.6706 172.926 37.6156C172.854 37.4487 172.809 37.3564 172.784 37.3172C172.675 37.1464 172.944 37.9858 172.949 38.0504C172.977 38.5273 172.673 37.9809 172.611 38.1765C172.594 38.2289 172.829 38.8101 172.841 38.8649C172.96 39.4021 172.628 38.3261 172.544 38.2246C172.307 37.9367 172.192 38.0318 172.1 38.1504C172.067 38.1948 172.364 38.8596 172.331 38.8915C172.142 39.0934 171.878 39.1162 171.512 38.8243C171.442 38.7681 171.276 38.2334 171.223 38.1169C170.852 37.3012 171.183 38.4783 171.203 38.5948C171.292 39.127 171.084 38.6768 171.032 38.7943C170.946 38.9978 170.814 39.1156 170.66 39.1811C170.373 39.3029 170.006 39.2436 169.708 39.2158C169.112 39.1632 168.528 38.8167 168.093 39.132C168.065 39.1514 168.363 39.8338 168.342 39.8594C168.277 39.93 168.202 39.9761 168.123 40.0096C167.866 40.1182 167.56 40.0964 167.356 40.3514C167.334 40.3776 167.629 41.0193 167.602 41.0834C167.548 41.2195 167.417 41.2294 167.241 41.0561C167.156 40.9728 166.998 40.3848 166.917 40.3125C166.727 40.1429 166.593 40.1411 166.523 40.2896C166.494 40.3542 166.827 40.9987 166.769 41.0303C166.456 41.2135 166.16 41.4267 165.663 41.1456C165.538 41.075 165.401 40.9733 165.247 40.832C165.195 40.7836 164.635 39.4285 164.675 39.7145C164.819 40.0952 164.994 40.5408 165.15 40.9465C164.624 41.4042 163.83 41.1696 163.182 41.3386C163.154 41.3459 163.482 42.0517 163.431 42.0695C163.327 42.1057 163.235 42.1671 163.134 42.2064C162.944 42.2797 162.724 42.2755 162.345 41.8832C162.288 41.8245 161.807 40.5453 161.794 40.7721C161.793 40.8133 161.726 41.0347 161.8 41.3245C161.811 41.368 162.067 41.953 162.031 41.9869C161.817 42.1739 161.503 42.1397 161.113 41.8727C161.05 41.8284 160.848 41.1785 160.8 41.1414C160.468 40.8836 160.433 41.4506 160.017 40.95C159.738 40.6125 159.364 39.4982 158.88 38.446C158.812 38.2975 158.723 38.3041 158.478 37.678C157.86 36.1037 157.234 34.3608 156.572 32.6845C156.429 32.3234 156.475 32.754 156.2 31.8544C156.182 31.7942 156.146 31.4744 156.051 31.1702C155.985 30.9598 155.716 30.3305 155.641 30.0575C155.566 29.7847 155.801 30.3085 155.726 29.9828C155.65 29.6533 155.351 28.9348 155.405 28.8152ZM182.184 34.6591C182.296 34.0099 181.561 36.2871 181.832 35.7716C181.846 35.7439 182.179 34.6911 182.184 34.6591ZM188.709 37.5344C189.537 36.8728 188.211 37.682 187.567 38.1857C186.922 38.6862 188.457 37.7339 188.709 37.5344ZM189.921 37.9749C190.546 37.4127 187.709 39.2736 188.358 39.0103C188.395 38.9957 189.885 38.0079 189.921 37.9749ZM159.08 38.0165C159.067 37.9873 158.999 37.9805 159.009 38.0104C159.251 38.7312 159.388 38.7442 159.08 38.0165ZM191.252 38.3891C191.589 38.0751 191.102 38.3114 190.679 38.6984C190.343 39.0141 190.837 38.7853 191.252 38.3891ZM179.209 30.966C179.219 30.9316 179.187 30.8882 179.129 31.0813C178.943 31.7033 179.052 31.5451 179.209 30.966ZM192.797 39.7415C192.514 39.4215 194.135 37.1188 194.043 37.4407C194.04 37.507 193.508 38.1594 193.402 38.3922C193.261 38.8474 194.17 37.3399 193.78 38.1989C193.734 38.3704 192.828 39.7754 192.795 39.7446C192.796 39.7435 192.797 39.7425 192.797 39.7415ZM182.996 31.9019C183.004 31.8712 182.956 31.8248 182.945 31.8542C182.682 32.5679 182.785 32.6638 182.996 31.9019ZM176.984 28.927C176.991 28.8595 176.839 28.7749 176.826 28.8362C176.6 30.0588 176.86 30.2269 176.984 28.927ZM187.505 31.4073C187.784 30.8152 187.916 30.6914 187.774 31.238C187.75 31.3324 187.717 31.4467 187.676 31.5821C187.669 31.5729 187.662 31.5643 187.656 31.5561C187.608 31.4999 187.552 31.4677 187.505 31.4073Z" fill="#FF6602"/>
<path d="M25.7297 106.733C24.543 106.499 28.2353 109.411 27.5043 109.298C27.3997 109.298 27.2695 109.282 27.1237 109.254C26.452 108.923 25.2504 108.309 24.9158 108.495C24.8422 108.532 24.817 108.608 24.8613 108.73C24.9391 108.943 24.8527 109.079 24.7067 109.19C24.4453 109.384 23.9894 109.503 23.9922 109.704C23.9935 109.782 24.0657 109.87 24.2486 109.976C25.0685 110.424 22.7827 109.804 22.683 110.065C22.672 110.093 22.6938 110.133 22.7588 110.183C23.1732 110.5 23.122 110.574 22.7158 110.631C22.5304 110.657 22.2715 110.677 21.9546 110.713C21.6454 110.806 21.3266 110.686 21.1222 110.877C21.0069 111.042 20.88 111.021 20.8493 111.131C20.8083 111.207 20.8237 111.262 20.8868 111.255C20.9671 111.247 21.1179 111.134 21.3092 110.863C21.3146 110.856 21.3198 110.848 21.3249 110.841C21.5722 110.478 21.4778 110.442 21.3869 110.645C21.2796 110.855 21.1851 111.32 21.1999 111.722C21.2051 111.958 21.2395 112.17 21.2848 112.292C21.3451 112.457 21.4047 112.677 21.4611 112.903C21.4847 112.999 21.4976 113.2 21.4977 113.397C21.4977 113.398 21.4977 113.398 21.4977 113.398C21.4983 113.644 21.475 113.886 21.4307 113.917C21.2692 114.026 21.0486 114.273 20.6437 114.706C20.5093 114.848 20.3528 115.009 20.1659 115.188C19.805 115.531 19.5069 115.632 19.2865 115.617C18.8505 115.577 18.7128 115.139 18.3449 114.797C18.1502 114.612 17.8864 114.449 17.4341 114.26C17.3515 114.225 17.2691 114.191 17.1863 114.154C16.6894 113.94 16.189 113.702 15.7429 113.402C15.2935 113.157 14.8245 112.552 14.6202 112.257C14.2986 111.789 14.2532 110.686 14.725 110.177C14.8009 110.076 14.8556 109.981 14.8915 109.893C15.1878 109.206 14.215 108.644 13.7486 107.938C13.3963 107.426 13.3411 106.859 14.3211 106.484C14.4157 106.448 14.52 106.415 14.6344 106.384C15.5542 106.14 15.7862 105.864 15.6797 105.477C15.5156 104.884 14.5314 104.056 13.9818 103.096C13.7147 102.601 13.5241 102.129 13.7096 101.503C13.7764 101.285 13.8583 101.093 13.9376 100.944C14.6018 99.6371 16.9721 98.9776 17.9376 98.6549C18.2055 98.5427 18.4052 98.4206 18.508 98.2561C18.9569 97.5326 19.4452 96.501 20.4104 95.96C20.6156 95.8448 20.8407 95.7532 21.0907 95.6914C21.981 95.4742 22.3952 94.5243 23.0404 93.8729C23.4169 93.4919 23.8668 93.2177 24.5114 93.2721C25.1526 93.3261 25.8686 93.3811 26.5737 93.4494C27.7866 93.5653 28.968 93.716 29.7351 93.9207C30.1202 94.0226 30.408 94.1011 30.6374 94.1267C31.1273 94.1858 31.3275 94.0119 31.5114 93.3792C31.6675 92.846 32.3195 92.7585 33.4899 93.424C34.0783 93.7589 34.582 94.4741 34.6224 94.9732C34.6774 95.705 34.1674 95.5776 34.6547 96.5756C35.6209 98.575 35.9517 99.3702 34.7771 98.6532C34.0313 98.1947 34.3646 99.0321 34.5842 99.6823C34.71 100.053 34.8008 100.361 34.6415 100.326C34.2039 100.228 33.2181 98.8434 32.7479 100.773C32.652 101.168 32.5612 101.51 32.4711 101.811C32.1259 102.981 31.8238 103.524 31.6374 103.971C31.5467 104.189 31.2294 104.237 30.8564 104.272C30.2733 104.325 29.5467 104.352 29.3745 104.91C29.2817 105.211 29.0575 105.479 28.8126 105.741C28.3135 106.27 27.7425 106.784 27.922 107.44C28.0055 107.748 27.935 107.822 27.7561 107.773C27.3714 107.666 26.4804 106.976 25.7297 106.733Z" fill="#FFDC9D"/>
<path d="M9.83464 90.9099C8.85428 91.2484 10.4459 93.0367 9.73433 93.546C9.57776 93.6698 9.40255 93.7582 9.22168 93.8267C8.52709 94.1016 7.76758 93.9427 7.59625 94.8843C7.57061 95.039 7.52854 95.1852 7.47484 95.3264C7.15629 96.1599 6.42356 96.8468 6.53439 97.3984C6.54425 97.4473 6.561 97.4943 6.58525 97.5403C6.9337 98.1823 5.4216 97.8226 5.5639 98.6623C5.62879 99.0225 5.61268 99.3003 5.52095 99.5476C5.40174 99.8699 5.15392 100.139 4.80214 100.467C4.54957 100.701 4.2686 101.176 4.07136 101.723C3.7802 102.52 3.67866 103.466 4.00789 103.951C4.05694 104.024 4.09276 104.097 4.11719 104.169C4.3663 104.892 3.42492 105.61 3.18608 106.104C3.10405 106.27 2.99473 106.402 2.88156 106.503C2.83358 106.545 2.73344 106.565 2.63456 106.565C2.6345 106.565 2.63443 106.565 2.63437 106.565C2.51126 106.565 2.39017 106.534 2.37478 106.478C2.30008 106.203 2.1062 105.793 1.68066 105.281C1.16387 104.653 1.38674 104.402 1.50822 103.962C1.57375 103.725 1.61176 103.436 1.50971 102.989C1.36542 102.355 1.11883 101.818 0.999846 101.265C0.878136 100.697 0.891976 100.108 1.31493 99.4142C1.47844 99.147 1.52809 98.9041 1.51532 98.6685C1.47232 97.8223 0.587801 97.0247 1.44425 95.8725C1.55567 95.725 1.69618 95.5744 1.87218 95.4199C2.76232 94.6454 2.77929 94.0534 2.60369 93.3627C2.40825 92.5787 1.93718 91.6736 2.40899 90.4091C2.4483 90.3034 2.49099 90.2013 2.53659 90.1027C3.26108 88.4843 5.28913 87.0413 6.42726 86.2926C6.78494 86.0398 7.08074 85.8145 7.28245 85.5895C8.00996 84.774 8.94615 83.7257 10.1893 82.9388C10.5027 82.74 10.8338 82.5583 11.1835 82.4007C12.2394 81.9252 13.2204 81.062 14.3207 80.3742C15.0111 79.9417 15.7433 79.5805 16.5315 79.4389C17.2611 79.3075 18.0901 79.1656 18.913 79.0454C20.391 78.8271 21.8493 78.6818 22.7084 78.6797C23.1152 78.678 23.4233 78.6801 23.6912 78.6605C24.2994 78.6192 24.6704 78.4705 25.3827 77.9943C25.9709 77.6013 26.9174 77.4378 27.8708 77.7688C28.3473 77.9366 28.4043 78.3784 28.0957 78.7057C27.6398 79.1859 27.1217 79.1515 27.02 79.7661C26.8172 80.995 26.7304 81.4696 25.8076 81.1314C25.1971 80.9089 25.0648 81.4802 24.9159 81.8906C24.8393 82.1012 24.7551 82.2708 24.6 82.2702C24.1449 82.2738 23.8187 81.4632 22.0396 82.9107C21.6583 83.2256 21.3178 83.5036 21.0083 83.7518C19.8916 84.6509 19.1928 85.1462 18.6893 85.5401C18.4252 85.7478 17.9627 85.8894 17.4418 86.0541C16.7018 86.2864 15.8386 86.5741 15.2902 87.1107C14.9607 87.4317 14.4712 87.7923 13.9657 88.1805C13.0303 88.8886 12.0658 89.7173 11.8127 90.3557C11.6513 90.7548 11.4592 90.8766 11.211 90.9011C10.8541 90.9362 10.3849 90.7567 9.83464 90.9099Z" fill="#FD5527"/>
<path d="M16.524 63.4395C16.5193 63.4316 16.5145 63.4241 16.5096 63.4172C16.2042 63.0084 15.7346 64.2855 15.3566 64.6946C15.2466 64.808 15.1364 64.8539 15.0186 64.7769C14.7019 64.5713 14.5282 64.0751 14.2985 63.7404C14.1279 63.4936 13.9247 63.336 13.5942 63.4574C13.4177 63.5221 13.2382 63.5294 13.0606 63.5078C12.5474 63.4451 12.0336 63.1339 11.7263 63.289C11.6745 63.3156 11.6278 63.3561 11.5868 63.414C11.2247 63.9265 11.1864 62.3769 10.6721 62.7211C10.669 62.7232 10.6658 62.7253 10.6627 62.7273C10.2343 63.0098 9.94638 62.9105 9.59916 62.5732C9.53405 62.51 9.46687 62.4383 9.39628 62.3593C9.2181 62.1598 8.89368 61.9718 8.53559 61.856C8.17716 61.7401 7.785 61.6965 7.47202 61.786C7.30829 61.8328 7.16622 61.916 7.06199 62.0444C6.84924 62.3063 6.62383 62.2649 6.40845 62.1108C6.11511 61.9008 5.8404 61.4817 5.64164 61.3349C5.53428 61.2556 5.44978 61.147 5.38501 61.0341C5.32338 60.9266 5.3362 60.5553 5.39981 60.5273C5.57101 60.4518 5.82686 60.2525 6.12913 59.8061C6.23811 59.6451 6.32832 59.5496 6.40845 59.4973C6.73468 59.2842 6.89376 59.7858 7.47202 59.489C7.4862 59.4818 7.50064 59.474 7.51534 59.4657C7.90129 59.2488 8.20912 58.9219 8.53559 58.7245C8.84565 58.5371 9.17253 58.4664 9.59916 58.7177C9.60906 58.7236 9.61903 58.7296 9.62904 58.7358C10.0718 59.0092 10.3459 58.5816 10.6627 58.238C10.9385 57.9389 11.2465 57.7034 11.7263 58.049C11.8078 58.1094 11.8937 58.1872 11.9853 58.2854C12.4227 58.7571 12.7354 58.7384 13.0016 58.5093C13.4085 58.1635 13.7146 57.3308 14.3725 56.9769C14.4831 56.9178 14.6046 56.8724 14.7383 56.8458C15.1006 56.7739 15.5015 56.8118 15.9117 56.9184C16.4532 57.0584 17.008 57.3202 17.5061 57.5914C18.1389 57.933 18.6712 58.2881 19.0869 58.3809C19.0966 58.3831 19.1062 58.3851 19.1158 58.3869C19.5708 58.4677 20.2657 58.6274 20.7954 58.8333C21.3661 59.0331 22.2804 59.6268 22.6941 60.191C22.8262 60.3552 22.9666 60.5057 23.1162 60.6514C23.7194 61.2381 24.4601 61.7402 24.9918 62.3787C25.2747 62.7179 25.4952 63.0927 25.5888 63.5197C25.665 63.8657 25.7418 64.2388 25.8113 64.6169C25.9609 65.4289 26.0753 66.2631 26.1277 66.9273C26.1518 67.2254 26.1631 67.4885 26.1602 67.7029C26.1482 68.4544 26.1478 68.7354 26.5021 69.0773C26.5791 69.1517 26.6714 69.2268 26.7845 69.3103C27.1524 69.584 27.3114 70.1347 27.0806 70.8906C26.9646 71.2693 26.583 71.4875 26.26 71.3903C25.7885 71.2462 25.7897 70.8706 25.2237 70.9984C24.1514 71.2349 23.688 71.3034 23.882 70.6726C23.893 70.6366 23.9061 70.5982 23.9214 70.5577C24.2095 69.8089 22.8571 70.3562 22.8549 70.0298C22.8531 69.7727 23.3078 69.4473 22.8707 68.8992C22.7539 68.7537 22.572 68.5915 22.3016 68.4184C21.8435 68.125 21.483 67.8828 21.1902 67.6792C20.667 67.3159 20.3589 67.07 20.1048 66.8978C19.9913 66.8216 19.9122 66.67 19.8411 66.4883C19.669 66.0392 19.5053 65.3771 19.0549 65.2248C19.0367 65.2186 19.0184 65.2119 19.0002 65.2048C18.5973 65.03 18.406 64.8515 18.0074 64.7007C17.6266 64.5594 17.4255 64.5646 17.1681 64.6675C17.1613 64.671 17.1546 64.6743 17.1481 64.6774C16.6304 64.9429 16.872 64.0409 16.524 63.4395Z" fill="#FFDC9D"/>
<path d="M152.002 4.11049C152.186 4.08465 152.318 4.00276 152.421 3.87843C152.737 3.49815 152.817 2.6914 153.141 2.06482C153.338 1.67624 153.62 1.36638 154.021 1.32131C154.172 1.30435 154.309 1.30899 154.438 1.32751C155.07 1.42406 155.491 1.8471 155.969 1.92839C156.191 1.96709 156.421 1.93436 156.673 1.76773C156.789 1.69206 156.905 1.63493 157.031 1.58802C157.736 1.32741 158.54 1.42192 159.003 1.32687C159.206 1.28478 159.362 1.20641 159.46 1.04859C159.839 0.437881 160.223 1.94056 160.816 1.46157C160.833 1.44783 160.85 1.43458 160.867 1.42181C161.434 0.990077 161.855 1.11022 162.505 1.46178C162.545 1.48307 162.588 1.50313 162.635 1.52185C163.06 1.69254 163.775 1.74868 164.372 1.60164C164.825 1.49219 165.204 1.26663 165.331 0.942884C165.413 0.73812 165.532 0.635143 165.679 0.591212C166.091 0.471999 166.783 0.813048 167.158 0.787443C167.311 0.780258 167.459 0.806767 167.593 0.848145C167.72 0.887426 167.934 1.19124 167.879 1.26666C167.734 1.46785 167.564 1.82791 167.395 2.43437C167.257 2.91369 167.061 3.05072 166.844 3.10739C166.541 3.18463 166.197 3.12013 165.687 3.5651C165.49 3.73614 165.315 3.91585 165.147 4.09116C164.658 4.601 164.217 5.08102 163.48 5.10544C163.336 5.1099 163.182 5.09678 163.014 5.06252C162.389 4.93292 162.12 5.38485 161.8 5.79707C161.457 6.24025 161.066 6.62713 160.174 6.19456C160.153 6.18449 160.132 6.17398 160.111 6.16302C159.24 5.73625 158.951 6.05136 158.714 6.5874C158.498 7.0133 158.315 7.56149 157.994 7.99403C157.853 8.18445 157.687 8.35195 157.489 8.47615C157.387 8.54094 157.284 8.59443 157.183 8.6383C156.925 8.74999 156.684 8.79835 156.457 8.81867C156.228 8.83946 156.003 8.835 155.762 8.85266C155.5 8.87012 155.219 8.91692 154.968 9.00056C154.68 9.10374 154.478 9.20384 154.333 9.38679C154.305 9.42227 154.276 9.46006 154.246 9.50001C153.789 10.1132 153.564 10.67 152.979 11.3644C152.867 11.4968 152.746 11.6286 152.613 11.7593C152.2 12.1652 152.018 12.7978 151.85 13.4477C151.673 14.1255 151.506 14.827 151.029 15.4295C150.938 15.5433 150.846 15.6644 150.752 15.7898C150.203 16.5217 149.613 17.4485 149.109 18.2499C148.799 18.7392 148.52 19.1787 148.293 19.4895C147.829 20.1291 147.618 20.4341 147.574 20.9133C147.555 21.1143 147.566 21.3466 147.6 21.6486C147.666 22.2356 147.366 22.9852 146.625 23.5133C146.252 23.778 145.84 23.6155 145.699 23.2514C145.493 22.7191 145.766 22.3664 145.275 22.0219C144.294 21.3344 143.919 21.0567 144.655 20.5465C144.719 20.5027 144.766 20.4586 144.801 20.4143C145.169 19.9426 144.046 19.4534 144.258 19.1427C144.472 18.8303 145.174 18.9472 145.095 17.4344C145.089 17.2882 145.075 17.1268 145.054 16.9468C144.919 15.7783 144.92 14.8892 144.959 14.1975C144.99 13.6748 145.042 13.2635 145.082 12.9139C145.136 12.4419 145.579 11.7797 146.024 11.066C146.347 10.5448 146.671 9.9973 146.835 9.43184C146.959 9.00629 147.212 8.47534 147.537 7.92447C148.141 6.85347 149.238 5.57736 149.603 4.90248C149.633 4.84632 149.659 4.79138 149.682 4.7376C149.949 4.14773 150.331 4.0261 150.725 4.05817C151.082 4.07897 151.487 4.1821 152.002 4.11049Z" fill="#FFDC9D"/>
<defs>
<filter id="filter0_g_58_512" x="32.632" y="11.3789" width="142.741" height="111.581" filterUnits="userSpaceOnUse" color-interpolation-filters="sRGB">
<feFlood flood-opacity="0" result="BackgroundImageFix"/>
<feBlend mode="normal" in="SourceGraphic" in2="BackgroundImageFix" result="shape"/>
<feTurbulence type="fractalNoise" baseFrequency="2.1276595592498779 2.1276595592498779" numOctaves="3" seed="531" />
<feDisplacementMap in="shape" scale="5.9200000762939453" xChannelSelector="R" yChannelSelector="G" result="displacedImage" width="100%" height="100%" />
<feMerge result="effect1_texture_58_512">
<feMergeNode in="displacedImage"/>
</feMerge>
</filter>
</defs>
</svg>
