<svg width="159" height="23" viewBox="0 0 159 23" fill="none" xmlns="http://www.w3.org/2000/svg">
<path d="M14.3812 1.17419V7.11104H6.10112V17.7126H0V1.17419H14.3812Z" fill="#C2C0C1"/>
<path d="M20.1336 9.08386V15.3322H14.5942V22.0269H8.62866V9.08386H20.1336Z" fill="#C2C0C1"/>
<path d="M151.493 22.7893C150.15 22.7893 148.971 22.5592 147.955 22.099C146.958 21.6388 146.124 21.0252 145.453 20.2582C144.801 19.4721 144.302 18.5996 143.957 17.6409C143.631 16.6821 143.468 15.7042 143.468 14.7071V14.1606C143.468 13.1252 143.631 12.1281 143.957 11.1693C144.302 10.1914 144.801 9.32852 145.453 8.5807C146.124 7.8137 146.948 7.20969 147.926 6.76867C148.904 6.30847 150.035 6.07837 151.32 6.07837C153.008 6.07837 154.417 6.45228 155.548 7.2001C156.699 7.92875 157.562 8.89708 158.137 10.1051C158.712 11.2939 159 12.5787 159 13.9593V15.3974H145.165V12.9526H156.497L155.261 14.1606C155.261 13.1635 155.117 12.3102 154.829 11.6007C154.542 10.8913 154.101 10.3448 153.506 9.96129C152.931 9.57779 152.202 9.38604 151.32 9.38604C150.438 9.38604 149.69 9.58738 149.077 9.99005C148.463 10.3927 147.993 10.9776 147.667 11.7446C147.361 12.4924 147.207 13.3936 147.207 14.4482C147.207 15.4261 147.361 16.2986 147.667 17.0656C147.974 17.8134 148.444 18.4078 149.077 18.8489C149.709 19.2707 150.515 19.4816 151.493 19.4816C152.471 19.4816 153.266 19.2899 153.88 18.9064C154.494 18.5037 154.887 18.0148 155.059 17.4395H158.741C158.511 18.5133 158.07 19.4529 157.418 20.2582C156.766 21.0636 155.932 21.6868 154.915 22.1278C153.918 22.5688 152.777 22.7893 151.493 22.7893Z" fill="#C2C0C1"/>
<path d="M131.439 22.7604C130.346 22.7604 129.339 22.559 128.419 22.1564C127.499 21.7537 126.703 21.188 126.032 20.4594C125.361 19.7307 124.843 18.887 124.478 17.9283C124.114 16.9504 123.932 15.8957 123.932 14.7644V14.1604C123.932 13.0483 124.105 12.0032 124.45 11.0253C124.814 10.0474 125.313 9.1941 125.945 8.46545C126.597 7.73681 127.374 7.17115 128.275 6.76847C129.196 6.34662 130.212 6.1357 131.324 6.1357C132.551 6.1357 133.625 6.40415 134.545 6.94105C135.485 7.45877 136.233 8.24494 136.789 9.29956C137.345 10.3542 137.652 11.6773 137.709 13.2688L136.53 11.8882V1.24609H140.528V22.2426H137.364V15.5985H138.054C137.997 17.19 137.671 18.5227 137.076 19.5965C136.482 20.6511 135.696 21.4469 134.718 21.9838C133.759 22.5015 132.666 22.7604 131.439 22.7604ZM132.331 19.3952C133.117 19.3952 133.836 19.2226 134.488 18.8774C135.14 18.5131 135.657 17.9954 136.041 17.3243C136.444 16.634 136.645 15.8286 136.645 14.9082V13.7577C136.645 12.8373 136.444 12.0703 136.041 11.4567C135.638 10.824 135.111 10.3446 134.459 10.0186C133.807 9.67348 133.098 9.5009 132.331 9.5009C131.468 9.5009 130.701 9.71182 130.03 10.1337C129.378 10.5363 128.86 11.1116 128.476 11.8594C128.112 12.6072 127.93 13.4797 127.93 14.4768C127.93 15.4739 128.122 16.3464 128.505 17.0942C128.889 17.8228 129.406 18.3885 130.058 18.7912C130.73 19.1938 131.487 19.3952 132.331 19.3952Z" fill="#C2C0C1"/>
<path d="M116.937 22.2428V6.62479H120.935V22.2428H116.937ZM114.751 9.61608V6.62479H120.935V9.61608H114.751ZM118.404 4.75523C117.618 4.75523 117.033 4.5539 116.65 4.15122C116.285 3.72937 116.103 3.20206 116.103 2.56929C116.103 1.93652 116.285 1.41879 116.65 1.01612C117.033 0.613446 117.618 0.412109 118.404 0.412109C119.19 0.412109 119.765 0.613446 120.13 1.01612C120.494 1.41879 120.676 1.93652 120.676 2.56929C120.676 3.20206 120.494 3.72937 120.13 4.15122C119.765 4.5539 119.19 4.75523 118.404 4.75523Z" fill="#C2C0C1"/>
<path d="M104.771 22.2428V6.6248H107.935V13.2401H107.849C107.849 10.9967 108.328 9.2997 109.287 8.14921C110.246 6.99871 111.655 6.42346 113.515 6.42346H114.09V9.90371H112.997C111.655 9.90371 110.61 10.268 109.862 10.9967C109.133 11.7062 108.769 12.7416 108.769 14.103V22.2428H104.771Z" fill="#C2C0C1"/>
<path d="M86.911 22.2428V18.216C86.911 17.334 87.0452 16.567 87.3136 15.915C87.6013 15.2631 88.0615 14.6878 88.6942 14.1893C89.3462 13.6716 90.1995 13.1826 91.2541 12.7224L94.8206 11.1405C95.7027 10.7378 96.3738 10.2489 96.834 9.6736C97.3133 9.07918 97.553 8.32177 97.553 7.40137C97.553 6.3851 97.2462 5.57976 96.6326 4.98533C96.0382 4.37174 95.1849 4.06494 94.0728 4.06494C92.9606 4.06494 92.0978 4.37174 91.4842 4.98533C90.8898 5.59893 90.5925 6.45222 90.5925 7.54519H86.6521C86.6521 6.24129 86.9301 5.07162 87.4862 4.03618C88.0423 2.98155 88.8668 2.15703 89.9598 1.56261C91.0527 0.94901 92.4237 0.642212 94.0728 0.642212C95.7218 0.642212 97.0928 0.939424 98.1858 1.53385C99.2788 2.12827 100.103 2.92403 100.659 3.92112C101.215 4.89905 101.493 5.99202 101.493 7.20004V7.57395C101.493 9.14629 101.052 10.4598 100.17 11.5144C99.2884 12.5498 97.9941 13.4511 96.2875 14.2181L92.721 15.8C92.0498 16.0876 91.58 16.3944 91.3116 16.7204C91.0432 17.0272 90.9089 17.449 90.9089 17.9859V19.8267L89.931 18.7625H101.58V22.2428H86.911Z" fill="#C2C0C1"/>
<path d="M69.2245 22.2427L74.3154 13.9016L74.2291 14.5632L69.4258 6.62476H73.7689L76.904 12.1184H77.3355L80.298 6.62476H84.3822L79.8378 14.5344L79.9241 13.9592L85.3026 22.2427H80.9595L77.2492 16.3464H76.8177L73.3087 22.2427H69.2245Z" fill="#C2C0C1"/>
<path d="M60.7925 22.7893C59.4503 22.7893 58.271 22.5592 57.2547 22.099C56.2577 21.6388 55.4235 21.0252 54.7524 20.2582C54.1005 19.4721 53.6019 18.5996 53.2568 17.6409C52.9308 16.6821 52.7678 15.7042 52.7678 14.7071V14.1606C52.7678 13.1252 52.9308 12.1281 53.2568 11.1693C53.6019 10.1914 54.1005 9.32852 54.7524 8.5807C55.4235 7.8137 56.2481 7.20969 57.226 6.76867C58.2039 6.30847 59.3352 6.07837 60.6199 6.07837C62.3073 6.07837 63.7167 6.45228 64.848 7.2001C65.9985 7.92875 66.8614 8.89708 67.4366 10.1051C68.0119 11.2939 68.2995 12.5787 68.2995 13.9593V15.3974H54.4648V12.9526H65.7972L64.5604 14.1606C64.5604 13.1635 64.4166 12.3102 64.1289 11.6007C63.8413 10.8913 63.4003 10.3448 62.8059 9.96129C62.2306 9.57779 61.502 9.38604 60.6199 9.38604C59.7379 9.38604 58.9901 9.58738 58.3765 9.99005C57.7629 10.3927 57.2931 10.9776 56.9671 11.7446C56.6603 12.4924 56.5069 13.3936 56.5069 14.4482C56.5069 15.4261 56.6603 16.2986 56.9671 17.0656C57.2739 17.8134 57.7437 18.4078 58.3765 18.8489C59.0093 19.2707 59.8146 19.4816 60.7925 19.4816C61.7704 19.4816 62.5662 19.2899 63.1798 18.9064C63.7934 18.5037 64.1865 18.0148 64.359 17.4395H68.0406C67.8105 18.5133 67.3695 19.4529 66.7176 20.2582C66.0656 21.0636 65.2315 21.6868 64.2152 22.1278C63.2181 22.5688 62.0772 22.7893 60.7925 22.7893Z" fill="#C2C0C1"/>
<path d="M45.8163 22.2426V1.24609H49.8143V22.2426H45.8163ZM43.8605 4.23738V1.24609H49.8143V4.23738H43.8605Z" fill="#C2C0C1"/>
<path d="M30.2434 22.2426V1.24609H34.3277V22.2426H30.2434ZM33.7524 13.4989V10.0474L42.151 10.0186V13.4701L33.7524 13.4989ZM33.7524 4.69758V1.24609H42.5537V4.69758H33.7524Z" fill="#C2C0C1"/>
</svg>
