<svg width="165" height="59" viewBox="0 0 165 59" fill="none" xmlns="http://www.w3.org/2000/svg">
<circle cx="29.4643" cy="29.4792" r="29.4643" fill="#FFA500"/>
<path d="M15.1399 36.9077V34.8287L21.9709 24.3276H15.2035V22.0577H25.1106V24.1367L18.2372 34.6378H25.153V36.9077H15.1399ZM31.7664 37.1623C30.7057 37.1623 29.7652 36.936 28.9449 36.4834C28.1246 36.0309 27.4811 35.3944 27.0144 34.5741C26.5477 33.7539 26.3143 32.8063 26.3143 31.7314C26.3143 30.6424 26.5406 29.6736 26.9932 28.8251C27.4599 27.9765 28.0963 27.3189 28.9024 26.8521C29.7227 26.3713 30.6844 26.1309 31.7876 26.1309C32.82 26.1309 33.7322 26.3571 34.5242 26.8097C35.3162 27.2623 35.9314 27.8846 36.3699 28.6766C36.8224 29.4544 37.0487 30.3242 37.0487 31.2859C37.0487 31.4415 37.0417 31.6041 37.0275 31.7739C37.0275 31.9436 37.0204 32.1204 37.0063 32.3042H29.0085C29.0651 33.1245 29.3479 33.768 29.8571 34.2347C30.3804 34.7014 31.0097 34.9348 31.7452 34.9348C32.2967 34.9348 32.7564 34.8146 33.1241 34.5741C33.5059 34.3196 33.7888 33.9943 33.9727 33.5983H36.7305C36.5325 34.263 36.2002 34.8711 35.7334 35.4227C35.2809 35.9601 34.7152 36.3844 34.0363 36.6956C33.3716 37.0067 32.6149 37.1623 31.7664 37.1623ZM31.7876 28.3371C31.1229 28.3371 30.5359 28.5281 30.0268 28.9099C29.5177 29.2776 29.1924 29.8434 29.0509 30.6071H34.2909C34.2484 29.9141 33.9939 29.3625 33.5272 28.9524C33.0604 28.5422 32.4806 28.3371 31.7876 28.3371ZM38.4486 36.9077V26.3854H40.8671L41.1217 28.3584C41.5035 27.6795 42.0197 27.1421 42.6703 26.7461C43.335 26.3359 44.1129 26.1309 45.0039 26.1309V28.9948H44.2402C43.6462 28.9948 43.1158 29.0867 42.6491 29.2706C42.1824 29.4544 41.8147 29.7726 41.5459 30.2252C41.2914 30.6778 41.1641 31.3071 41.1641 32.1133V36.9077H38.4486ZM50.8384 37.1623C49.8201 37.1623 48.9008 36.9289 48.0805 36.4622C47.2744 35.9955 46.6309 35.352 46.15 34.5317C45.6833 33.6973 45.45 32.7356 45.45 31.6466C45.45 30.5576 45.6904 29.6029 46.1713 28.7826C46.6521 27.9482 47.2956 27.2976 48.1018 26.8309C48.922 26.3642 49.8413 26.1309 50.8596 26.1309C51.8638 26.1309 52.7689 26.3642 53.575 26.8309C54.3953 27.2976 55.0388 27.9482 55.5055 28.7826C55.9864 29.6029 56.2268 30.5576 56.2268 31.6466C56.2268 32.7356 55.9864 33.6973 55.5055 34.5317C55.0388 35.352 54.3953 35.9955 53.575 36.4622C52.7548 36.9289 51.8425 37.1623 50.8384 37.1623ZM50.8384 34.8075C51.5455 34.8075 52.1608 34.5459 52.684 34.0226C53.2073 33.4851 53.469 32.6931 53.469 31.6466C53.469 30.6 53.2073 29.8151 52.684 29.2918C52.1608 28.7544 51.5526 28.4856 50.8596 28.4856C50.1383 28.4856 49.516 28.7544 48.9928 29.2918C48.4836 29.8151 48.229 30.6 48.229 31.6466C48.229 32.6931 48.4836 33.4851 48.9928 34.0226C49.516 34.5459 50.1313 34.8075 50.8384 34.8075Z" fill="white"/>
<path d="M61.9583 36.9077V23.7077H66.0126C68.3383 23.7077 70.048 24.2986 71.1417 25.4803C72.248 26.662 72.8012 28.2837 72.8012 30.3454C72.8012 32.3694 72.248 33.9723 71.1417 35.154C70.048 36.3231 68.3383 36.9077 66.0126 36.9077H61.9583ZM63.5423 35.5877H65.9749C67.2572 35.5877 68.2755 35.3803 69.0297 34.9654C69.7966 34.538 70.3435 33.9346 70.6703 33.1551C70.9972 32.3631 71.1606 31.4266 71.1606 30.3454C71.1606 29.2391 70.9972 28.29 70.6703 27.498C70.3435 26.706 69.7966 26.0963 69.0297 25.6689C68.2755 25.2414 67.2572 25.0277 65.9749 25.0277H63.5423V35.5877ZM78.3153 37.134C77.4227 37.134 76.6307 36.9329 75.9393 36.5306C75.2478 36.1157 74.701 35.5437 74.2987 34.8146C73.909 34.0854 73.7141 33.2243 73.7141 32.2311C73.7141 31.2506 73.909 30.3957 74.2987 29.6666C74.6884 28.9249 75.229 28.3529 75.9204 27.9506C76.6244 27.5357 77.4353 27.3283 78.353 27.3283C79.2581 27.3283 80.0376 27.5357 80.6913 27.9506C81.3576 28.3529 81.8667 28.8871 82.2187 29.5534C82.5707 30.2197 82.7467 30.9363 82.7467 31.7031C82.7467 31.8414 82.7404 31.9797 82.7278 32.118C82.7278 32.2563 82.7278 32.4134 82.7278 32.5894H75.2793C75.317 33.306 75.4804 33.9031 75.7696 34.3809C76.0713 34.846 76.4421 35.198 76.8821 35.4369C77.3347 35.6757 77.8124 35.7951 78.3153 35.7951C78.969 35.7951 79.5158 35.6443 79.9558 35.3426C80.3958 35.0409 80.7164 34.6323 80.9176 34.1169H82.4827C82.2313 34.9843 81.7473 35.7071 81.0307 36.2854C80.3267 36.8511 79.4216 37.134 78.3153 37.134ZM78.3153 28.6671C77.561 28.6671 76.8884 28.8997 76.2976 29.3649C75.7193 29.8174 75.3861 30.4837 75.2981 31.3637H81.1816C81.1438 30.5214 80.8547 29.8614 80.3141 29.3837C79.7736 28.906 79.1073 28.6671 78.3153 28.6671ZM83.9622 41.0563V27.5546H85.3954L85.5462 29.1009C85.848 28.6483 86.2754 28.2397 86.8285 27.8751C87.3942 27.5106 88.1108 27.3283 88.9782 27.3283C89.9085 27.3283 90.7194 27.542 91.4108 27.9694C92.1022 28.3969 92.6365 28.9814 93.0137 29.7231C93.4034 30.4649 93.5982 31.3071 93.5982 32.25C93.5982 33.1929 93.4034 34.0351 93.0137 34.7769C92.6365 35.506 92.096 36.0843 91.392 36.5117C90.7005 36.9266 89.8897 37.134 88.9594 37.134C88.1925 37.134 87.5074 36.9769 86.904 36.6626C86.3131 36.3483 85.8605 35.9083 85.5462 35.3426V41.0563H83.9622ZM88.7897 35.7574C89.4182 35.7574 89.9714 35.6129 90.4491 35.3237C90.9268 35.022 91.304 34.6071 91.5805 34.0791C91.8571 33.5511 91.9954 32.9351 91.9954 32.2311C91.9954 31.5271 91.8571 30.9111 91.5805 30.3831C91.304 29.8551 90.9268 29.4466 90.4491 29.1574C89.9714 28.8557 89.4182 28.7049 88.7897 28.7049C88.1611 28.7049 87.608 28.8557 87.1302 29.1574C86.6525 29.4466 86.2754 29.8551 85.9988 30.3831C85.7222 30.9111 85.584 31.5271 85.584 32.2311C85.584 32.9351 85.7222 33.5511 85.9988 34.0791C86.2754 34.6071 86.6525 35.022 87.1302 35.3237C87.608 35.6129 88.1611 35.7574 88.7897 35.7574ZM94.9193 36.9077V27.5546H96.3524L96.4844 29.346C96.7736 28.73 97.2136 28.2397 97.8044 27.8751C98.3953 27.5106 99.1244 27.3283 99.9918 27.3283V28.9877H99.5581C99.005 28.9877 98.4958 29.0883 98.0307 29.2894C97.5656 29.478 97.1947 29.8049 96.9181 30.27C96.6416 30.7351 96.5033 31.3763 96.5033 32.1934V36.9077H94.9193ZM104.741 37.134C103.848 37.134 103.056 36.9329 102.365 36.5306C101.674 36.1157 101.127 35.5437 100.724 34.8146C100.335 34.0854 100.14 33.2243 100.14 32.2311C100.14 31.2506 100.335 30.3957 100.724 29.6666C101.114 28.9249 101.655 28.3529 102.346 27.9506C103.05 27.5357 103.861 27.3283 104.779 27.3283C105.684 27.3283 106.463 27.5357 107.117 27.9506C107.783 28.3529 108.292 28.8871 108.644 29.5534C108.996 30.2197 109.172 30.9363 109.172 31.7031C109.172 31.8414 109.166 31.9797 109.154 32.118C109.154 32.2563 109.154 32.4134 109.154 32.5894H101.705C101.743 33.306 101.906 33.9031 102.195 34.3809C102.497 34.846 102.868 35.198 103.308 35.4369C103.76 35.6757 104.238 35.7951 104.741 35.7951C105.395 35.7951 105.942 35.6443 106.382 35.3426C106.822 35.0409 107.142 34.6323 107.343 34.1169H108.908C108.657 34.9843 108.173 35.7071 107.456 36.2854C106.752 36.8511 105.847 37.134 104.741 37.134ZM104.741 28.6671C103.987 28.6671 103.314 28.8997 102.723 29.3649C102.145 29.8174 101.812 30.4837 101.724 31.3637H107.607C107.57 30.5214 107.28 29.8614 106.74 29.3837C106.199 28.906 105.533 28.6671 104.741 28.6671ZM113.971 37.134C112.852 37.134 111.922 36.8511 111.18 36.2854C110.438 35.7197 110.005 34.9529 109.879 33.9849H111.501C111.601 34.4751 111.859 34.9026 112.274 35.2671C112.701 35.6191 113.273 35.7951 113.99 35.7951C114.656 35.7951 115.146 35.6569 115.461 35.3803C115.775 35.0911 115.932 34.7517 115.932 34.362C115.932 33.7963 115.725 33.4191 115.31 33.2306C114.907 33.042 114.335 32.8723 113.594 32.7214C113.091 32.6209 112.588 32.4763 112.085 32.2877C111.582 32.0991 111.161 31.8351 110.822 31.4957C110.482 31.1437 110.313 30.6849 110.313 30.1191C110.313 29.302 110.614 28.6357 111.218 28.1203C111.834 27.5923 112.663 27.3283 113.707 27.3283C114.7 27.3283 115.511 27.5797 116.139 28.0826C116.781 28.5729 117.151 29.2769 117.252 30.1946H115.687C115.624 29.7169 115.417 29.346 115.065 29.082C114.725 28.8054 114.266 28.6671 113.688 28.6671C113.122 28.6671 112.682 28.7866 112.368 29.0254C112.066 29.2643 111.915 29.5786 111.915 29.9683C111.915 30.3454 112.11 30.6409 112.5 30.8546C112.902 31.0683 113.443 31.2506 114.122 31.4014C114.7 31.5271 115.247 31.6843 115.762 31.8729C116.29 32.0489 116.718 32.3191 117.045 32.6837C117.384 33.0357 117.554 33.5511 117.554 34.23C117.566 35.0723 117.246 35.77 116.592 36.3231C115.951 36.8637 115.077 37.134 113.971 37.134ZM122.516 37.134C121.397 37.134 120.466 36.8511 119.725 36.2854C118.983 35.7197 118.549 34.9529 118.424 33.9849H120.045C120.146 34.4751 120.404 34.9026 120.818 35.2671C121.246 35.6191 121.818 35.7951 122.534 35.7951C123.201 35.7951 123.691 35.6569 124.005 35.3803C124.32 35.0911 124.477 34.7517 124.477 34.362C124.477 33.7963 124.269 33.4191 123.854 33.2306C123.452 33.042 122.88 32.8723 122.138 32.7214C121.636 32.6209 121.133 32.4763 120.63 32.2877C120.127 32.0991 119.706 31.8351 119.366 31.4957C119.027 31.1437 118.857 30.6849 118.857 30.1191C118.857 29.302 119.159 28.6357 119.762 28.1203C120.378 27.5923 121.208 27.3283 122.252 27.3283C123.245 27.3283 124.056 27.5797 124.684 28.0826C125.325 28.5729 125.696 29.2769 125.797 30.1946H124.232C124.169 29.7169 123.961 29.346 123.609 29.082C123.27 28.8054 122.811 28.6671 122.233 28.6671C121.667 28.6671 121.227 28.7866 120.913 29.0254C120.611 29.2643 120.46 29.5786 120.46 29.9683C120.46 30.3454 120.655 30.6409 121.045 30.8546C121.447 31.0683 121.988 31.2506 122.666 31.4014C123.245 31.5271 123.792 31.6843 124.307 31.8729C124.835 32.0489 125.262 32.3191 125.589 32.6837C125.929 33.0357 126.098 33.5511 126.098 34.23C126.111 35.0723 125.79 35.77 125.137 36.3231C124.496 36.8637 123.622 37.134 122.516 37.134ZM128.439 25.4803C128.125 25.4803 127.861 25.3797 127.647 25.1786C127.446 24.9649 127.345 24.7009 127.345 24.3866C127.345 24.0849 127.446 23.8334 127.647 23.6323C127.861 23.4311 128.125 23.3306 128.439 23.3306C128.741 23.3306 128.998 23.4311 129.212 23.6323C129.426 23.8334 129.533 24.0849 129.533 24.3866C129.533 24.7009 129.426 24.9649 129.212 25.1786C128.998 25.3797 128.741 25.4803 128.439 25.4803ZM127.647 36.9077V27.5546H129.231V36.9077H127.647ZM135.367 37.134C134.487 37.134 133.695 36.9329 132.991 36.5306C132.287 36.1283 131.727 35.5626 131.313 34.8334C130.91 34.0917 130.709 33.2243 130.709 32.2311C130.709 31.238 130.917 30.3769 131.331 29.6477C131.746 28.906 132.306 28.334 133.01 27.9317C133.726 27.5294 134.525 27.3283 135.405 27.3283C136.285 27.3283 137.077 27.5294 137.781 27.9317C138.485 28.334 139.038 28.906 139.44 29.6477C139.855 30.3769 140.062 31.238 140.062 32.2311C140.062 33.2243 139.855 34.0917 139.44 34.8334C139.025 35.5626 138.459 36.1283 137.743 36.5306C137.039 36.9329 136.247 37.134 135.367 37.134ZM135.367 35.7763C135.907 35.7763 136.41 35.6443 136.875 35.3803C137.341 35.1163 137.718 34.7203 138.007 34.1923C138.296 33.6643 138.441 33.0106 138.441 32.2311C138.441 31.4517 138.296 30.798 138.007 30.27C137.73 29.742 137.359 29.346 136.894 29.082C136.429 28.818 135.933 28.686 135.405 28.686C134.864 28.686 134.361 28.818 133.896 29.082C133.431 29.346 133.054 29.742 132.765 30.27C132.475 30.798 132.331 31.4517 132.331 32.2311C132.331 33.0106 132.475 33.6643 132.765 34.1923C133.054 34.7203 133.425 35.1163 133.877 35.3803C134.342 35.6443 134.839 35.7763 135.367 35.7763ZM141.381 36.9077V27.5546H142.814L142.908 29.2329C143.21 28.642 143.644 28.1769 144.209 27.8374C144.775 27.498 145.416 27.3283 146.133 27.3283C147.239 27.3283 148.119 27.6677 148.773 28.3466C149.439 29.0129 149.772 30.0437 149.772 31.4391V36.9077H148.188V31.6089C148.188 29.6603 147.384 28.686 145.774 28.686C144.97 28.686 144.297 28.9814 143.757 29.5723C143.229 30.1506 142.965 30.9803 142.965 32.0614V36.9077H141.381Z" fill="#02073E"/>
</svg>
