<svg width="175" height="36" viewBox="0 0 175 36" fill="none" xmlns="http://www.w3.org/2000/svg">
<path d="M13.3898 3.72229C10.3789 3.72194 7.46282 4.77965 5.14773 6.71189C2.83265 8.64413 1.26466 11.3289 0.715892 14.3003C0.167122 17.2717 0.672207 20.3422 2.14349 22.9789C3.61477 25.6156 5.95939 27.652 8.77044 28.7348L7.25507 30.2472C7.13591 30.3703 7.04838 30.5208 7.00003 30.6855C6.95167 30.8501 6.94393 31.0242 6.97748 31.1925C7.01103 31.3609 7.08486 31.5185 7.19261 31.6519C7.30035 31.7852 7.43879 31.8903 7.59598 31.958C7.78788 32.0365 7.99858 32.0565 8.20172 32.0154C8.40487 31.9743 8.59142 31.874 8.73805 31.727L11.0784 29.3781C11.8428 29.5222 12.6189 29.5938 13.3966 29.5919C16.8148 29.5919 20.093 28.2291 22.51 25.8031C24.9271 23.3772 26.2849 20.087 26.2849 16.6562C26.2849 13.2255 24.9271 9.93526 22.51 7.50935C20.093 5.08344 16.8148 3.72058 13.3966 3.72058L13.3898 3.72229ZM2.48056 16.658C2.48056 13.754 3.62993 10.969 5.67581 8.91558C7.7217 6.86217 10.4965 5.70858 13.3898 5.70858C13.6523 5.70858 13.9131 5.70858 14.1756 5.74109L6.45392 13.4997C4.01638 15.9451 3.77263 18.1435 5.72266 20.095C7.18291 21.5595 9.7017 20.9117 13.279 18.1515C16.8564 15.3914 18.9587 14.3289 19.586 14.9642C20.5627 15.9445 20.3172 17.1627 18.8649 18.6288L10.3403 27.1642C8.07617 26.4994 6.08734 25.1166 4.67144 23.2227C3.25555 21.3288 2.48871 19.0257 2.48568 16.658H2.48056ZM13.3898 27.6073C13.2194 27.6073 13.0319 27.6073 12.858 27.5919L20.3189 20.1053C22.7576 17.6565 23.0008 15.4564 21.0485 13.5049C19.5916 12.0347 17.0734 12.6825 13.4938 15.4484C9.9142 18.2046 7.81076 19.2704 7.18689 18.634C6.21074 17.6531 6.45392 16.4316 7.91644 14.9694L16.6473 6.20814C19.1318 6.99266 21.2547 8.64349 22.6322 10.8622C24.0097 13.0809 24.5508 15.721 24.1577 18.3052C23.7647 20.8895 22.4634 23.2473 20.4891 24.9524C18.5148 26.6575 15.9978 27.5975 13.3932 27.6022L13.3898 27.6073Z" fill="#C2C0C1"/>
<path d="M5.50818 32.396C5.25382 32.3959 5.0073 32.4844 4.81063 32.6464C4.61396 32.8084 4.47931 33.0338 4.42963 33.2843C4.37994 33.5348 4.41829 33.7948 4.53815 34.0201C4.65801 34.2454 4.85195 34.422 5.08693 34.5198C5.32191 34.6176 5.5834 34.6305 5.82683 34.5564C6.07026 34.4823 6.28057 34.3258 6.42193 34.1134C6.56329 33.9011 6.62696 33.6461 6.60208 33.3919C6.57719 33.1378 6.4653 32.9001 6.28547 32.7195C6.07892 32.5131 5.7996 32.3968 5.50818 32.396Z" fill="#C2C0C1"/>
<path d="M37.4676 9.63501H48.1961V11.789H37.4676C35.3221 11.789 34.2488 12.5069 34.2476 13.9429C34.2476 14.877 36.5727 15.6486 41.2227 16.2577C45.8728 16.8667 48.1973 18.2491 48.1961 20.4048C48.1961 23.2755 46.408 24.7115 42.8318 24.7126H32.1016V22.5587H42.8318C44.9773 22.5587 46.0501 21.8407 46.0501 20.4048C46.0501 19.4706 43.7256 18.6985 39.0767 18.0883C34.4277 17.4781 32.1027 16.0963 32.1016 13.9429C32.1016 11.071 33.8902 9.63501 37.4676 9.63501Z" fill="#C2C0C1"/>
<path d="M61.0715 11.789H50.3412V9.63501H61.0715C64.6477 9.63501 66.4358 11.071 66.4358 13.9429C66.4358 16.8148 64.6477 18.2508 61.0715 18.2508H52.4872V24.7126H50.3412V16.09H61.0715C63.217 16.09 64.2897 15.372 64.2897 13.9361C64.2897 12.5001 63.217 11.7844 61.0715 11.789Z" fill="#C2C0C1"/>
<path d="M73.5064 9.63501H78.8724C82.4486 9.63501 84.2367 11.071 84.2367 13.9429V20.4048C84.2367 23.2755 82.4486 24.7115 78.8724 24.7126H73.5064C69.9302 24.7126 68.1421 23.2767 68.1421 20.4048V13.9429C68.1421 11.071 69.9302 9.63501 73.5064 9.63501ZM78.8724 11.789H73.5064C71.3598 11.789 70.287 12.5069 70.2881 13.9429V20.4048C70.2881 21.8396 71.3609 22.5576 73.5064 22.5587H78.8724C81.0167 22.5587 82.0895 21.8407 82.0906 20.4048V13.9429C82.0906 12.5081 81.0179 11.7901 78.8724 11.789Z" fill="#C2C0C1"/>
<path d="M97.1104 11.789H86.3818V9.63501H97.1104C100.689 9.63501 102.478 11.071 102.476 13.9429C102.475 16.8148 100.687 18.2508 97.1104 18.2508H96.478L102.916 24.7126H99.8906L93.4524 18.2508H88.5279V24.7126H86.3818V16.09H97.1104C99.2559 16.09 100.329 15.372 100.33 13.9361C100.331 12.5001 99.2582 11.7844 97.1104 11.789Z" fill="#C2C0C1"/>
<path d="M110.096 11.789H103.121V9.63501H119.216V11.789H112.242V24.7126H110.096V11.789Z" fill="#C2C0C1"/>
<path d="M132.09 11.789H121.351V9.63501H132.09C135.666 9.63501 137.454 11.071 137.454 13.9429C137.454 16.8148 135.666 18.2508 132.09 18.2508H131.458L137.894 24.7126H134.868L128.432 18.2508H123.506V24.7126H121.36V16.09H132.099C134.244 16.09 135.317 15.372 135.317 13.9361C135.317 12.5001 134.241 11.7844 132.09 11.789Z" fill="#C2C0C1"/>
<path d="M144.632 9.63501H155.363V11.789H144.632C142.488 11.789 141.415 12.5069 141.414 13.9429V16.09H155.363V18.244H141.421V20.3979C141.421 21.8327 142.494 22.5507 144.639 22.5519H155.369V24.7126H144.632C141.056 24.7126 139.268 23.2767 139.268 20.4048V13.9429C139.268 11.071 141.056 9.63501 144.632 9.63501Z" fill="#C2C0C1"/>
<path d="M171.457 13.9429V9.63501H173.603V13.9429C173.603 16.816 171.815 18.2519 168.239 18.2508H168.152L174.675 24.7126H171.65L165.126 18.2508H162.873C160.727 18.2508 159.655 18.9688 159.655 20.4048V24.7126H157.509V20.4048C157.509 17.5317 159.297 16.0957 162.873 16.0969H162.96L156.436 9.63501H159.462L165.985 16.09H168.239C170.385 16.09 171.458 15.3743 171.457 13.9429Z" fill="#C2C0C1"/>
</svg>
