<svg width="161" height="46" viewBox="0 0 161 46" fill="none" xmlns="http://www.w3.org/2000/svg">
<path d="M31.7551 25.8568C31.341 29.0723 30.0508 32.112 28.0254 34.6435C26 37.175 23.3175 39.1007 20.2712 40.2102L16.6025 41.5458C16.4492 41.602 16.2846 41.6204 16.1226 41.5994C15.9607 41.5783 15.8062 41.5185 15.6723 41.425C15.5385 41.3314 15.4292 41.2069 15.3537 41.0621C15.2783 40.9172 15.2389 40.7563 15.239 40.593V29.5926C15.2391 29.3536 15.3231 29.1224 15.4763 28.939C15.6295 28.7557 15.8422 28.632 16.0772 28.5895L31.7551 25.8568Z" fill="#C2C0C1"/>
<path d="M31.9005 23.5992C31.9005 23.6858 31.9005 23.7724 31.9005 23.859L9.86045 26.2229C9.71906 26.2373 9.57621 26.222 9.44116 26.1777C9.3061 26.1334 9.18186 26.0613 9.07648 25.9659C8.9711 25.8705 8.88694 25.7541 8.82946 25.6241C8.77198 25.4941 8.74245 25.3535 8.7428 25.2114V19.1426C8.74284 19.0007 8.77266 18.8604 8.83031 18.7307C8.88797 18.6011 8.97218 18.485 9.07752 18.3899C9.18285 18.2948 9.30696 18.2229 9.44182 18.1788C9.57668 18.1347 9.7193 18.1194 9.86045 18.1339L31.6211 20.467C31.8061 21.5008 31.8996 22.5489 31.9005 23.5992Z" fill="#C2C0C1"/>
<path d="M31.2131 18.7207L8.73721 14.809L0.838237 13.4203C0.603142 13.3788 0.390193 13.2558 0.236868 13.0729C0.0835426 12.8899 -0.000333523 12.6587 9.96753e-07 12.42V1.05909C0.000103285 0.895762 0.0395375 0.734863 0.114968 0.59C0.190399 0.445137 0.299607 0.320571 0.433357 0.226837C0.567106 0.133102 0.721463 0.0729573 0.883371 0.0514886C1.04528 0.03002 1.20998 0.0478592 1.36353 0.103497L20.2713 6.991C22.8911 7.94455 25.248 9.50434 27.1497 11.5429C29.0513 13.5815 30.4437 16.0411 31.2131 18.7207Z" fill="#C2C0C1"/>
<path d="M58.3022 14.7418H56.3743V17.4465H58.3022V14.7418Z" fill="#C2C0C1"/>
<path d="M76.1425 14.7418H74.2118V17.4465H76.1425V14.7418Z" fill="#C2C0C1"/>
<path d="M128.273 14.7418H126.345V17.4465H128.273V14.7418Z" fill="#C2C0C1"/>
<path d="M146.535 14.7418H144.584V17.4465H146.535V14.7418Z" fill="#C2C0C1"/>
<path d="M54.4546 17.7035C54.1222 16.9323 53.6484 16.23 53.0576 15.6331C52.4537 15.0251 51.7354 14.5426 50.9441 14.2137C50.1528 13.8847 49.3042 13.7156 48.4473 13.7163H42.412V31.6294H48.4529C49.3082 31.6305 50.1554 31.463 50.946 31.1365C51.7365 30.81 52.455 30.3309 53.0604 29.7266C53.6528 29.1364 54.127 28.4384 54.4574 27.6701C54.796 26.8752 54.9691 26.0195 54.966 25.1554V20.2294C54.9704 19.3613 54.7964 18.5015 54.4546 17.7035ZM53.0129 25.1415C53.0161 25.7475 52.8944 26.3477 52.6552 26.9046C52.4205 27.4454 52.0901 27.9394 51.6801 28.3631C51.258 28.7894 50.7553 29.1273 50.2012 29.3571C49.6471 29.5869 49.0527 29.7039 48.4529 29.7015H44.3399V15.6694H48.4529C49.0646 15.666 49.6705 15.7887 50.2327 16.0298C50.7738 16.2586 51.2668 16.5875 51.6857 16.9994C52.0959 17.4196 52.4246 17.9123 52.6552 18.4523C52.8931 19.0145 53.0147 19.619 53.0129 20.2294V25.1415Z" fill="#C2C0C1"/>
<path d="M58.3022 19.1482H56.3743V31.6044H58.3022V19.1482Z" fill="#C2C0C1"/>
<path d="M72.3678 22.8867C72.0408 22.1125 71.5663 21.4092 70.9707 20.8163C70.38 20.2231 69.6809 19.7489 68.9114 19.4192C68.1121 19.0836 67.2539 18.9108 66.3869 18.9108C65.52 18.9108 64.6618 19.0836 63.8625 19.4192C62.3038 20.08 61.0647 21.3231 60.4089 22.8839C60.0697 23.6866 59.8958 24.5495 59.8976 25.421C59.8968 26.2851 60.0707 27.1405 60.4089 27.9357C61.0698 29.4881 62.3067 30.724 63.8597 31.3836C64.6544 31.7234 65.5101 31.8974 66.3744 31.895C66.7792 31.8927 67.1799 31.9755 67.5507 32.138C67.9077 32.2939 68.2327 32.5146 68.5091 32.7891C68.787 33.0654 69.0089 33.3927 69.1629 33.753C69.3215 34.1235 69.4032 34.5222 69.4032 34.9252C69.4032 35.3281 69.3215 35.7269 69.1629 36.0973C69.0164 36.437 68.8111 36.7481 68.5566 37.0166H70.8701C70.8925 36.9663 70.9148 36.916 70.94 36.8657C71.2017 36.2529 71.3349 35.5929 71.3311 34.9266C71.3398 34.0725 71.1261 33.2309 70.7108 32.4845C70.4082 31.9478 70.0061 31.4737 69.5261 31.0875C69.8874 30.8874 70.2289 30.6535 70.546 30.3889C71.0225 29.9953 71.4378 29.5329 71.7782 29.017C72.4852 27.949 72.8614 26.6962 72.8595 25.4154C72.868 24.5479 72.7007 23.6878 72.3678 22.8867ZM70.5935 27.1869C70.3614 27.7276 70.0318 28.2211 69.6211 28.6426C69.2065 29.0632 68.7127 29.3975 68.1682 29.6261C67.6082 29.8613 67.0069 29.9824 66.3995 29.9824C65.7921 29.9824 65.1909 29.8613 64.6308 29.6261C64.0873 29.3941 63.5932 29.0603 63.1751 28.6426C62.7592 28.223 62.4256 27.7293 62.1916 27.1869C61.9517 26.6302 61.8299 26.0299 61.8339 25.4238C61.8309 24.8141 61.9526 24.2104 62.1916 23.6495C62.4206 23.1058 62.7537 22.6122 63.1723 22.1966C63.5948 21.7859 64.0892 21.4563 64.6308 21.2242C65.187 20.9827 65.7875 20.8599 66.3939 20.8638C67.0066 20.8605 67.6133 20.9832 68.1766 21.2242C68.7206 21.4489 69.2149 21.7788 69.6311 22.195C70.0473 22.6112 70.3772 23.1055 70.6019 23.6495C70.8423 24.2099 70.9641 24.814 70.9595 25.4238C70.9605 26.031 70.8339 26.6317 70.5879 27.1869H70.5935Z" fill="#C2C0C1"/>
<path d="M76.1425 19.1482H74.2118V31.6044H76.1425V19.1482Z" fill="#C2C0C1"/>
<path d="M84.5556 28.0111V28.3632C84.5581 28.8203 84.4698 29.2733 84.2958 29.696C84.1214 30.1038 83.8657 30.4718 83.5442 30.7773C83.2302 31.0818 82.8652 31.3287 82.4657 31.5066C82.0472 31.693 81.5938 31.7882 81.1356 31.786C80.6751 31.7858 80.2195 31.6907 79.7973 31.5066C79.3938 31.3315 79.0263 31.0833 78.7131 30.7745C78.4031 30.4614 78.1548 30.0926 77.9811 29.6876C77.7955 29.2659 77.7004 28.81 77.7017 28.3492V16.1166H79.6324V19.1901H84.0751V21.1181H79.6324V28.3576C79.6285 28.5521 79.6653 28.7453 79.7403 28.9247C79.8154 29.1042 79.9271 29.266 80.0683 29.3998C80.2066 29.5422 80.3727 29.6547 80.5564 29.7301C80.74 29.8056 80.9372 29.8425 81.1356 29.8385C81.5271 29.8341 81.9012 29.6767 82.178 29.3999C82.4548 29.1232 82.6122 28.749 82.6165 28.3576V28.0111H84.5556Z" fill="#C2C0C1"/>
<path d="M97.3723 22.8169C96.7144 21.2537 95.4708 20.0101 93.9076 19.3522C93.1042 19.012 92.2401 18.839 91.3677 18.8437C90.5036 18.8402 89.6479 19.0132 88.853 19.3522C87.2959 20.0152 86.0575 21.2576 85.3995 22.8169C85.0622 23.62 84.8902 24.4829 84.8937 25.354C84.8902 26.2181 85.0633 27.0738 85.4023 27.8687C85.7345 28.6367 86.2085 29.3353 86.7993 29.9279C87.3912 30.521 88.0912 30.9952 88.8614 31.325C89.6556 31.6659 90.5118 31.8391 91.3761 31.8335C92.2209 31.8442 93.0595 31.6867 93.8428 31.3701C94.6262 31.0535 95.3387 30.5841 95.9389 29.9894V31.5765H97.8948V25.354C97.8942 24.4816 97.7165 23.6185 97.3723 22.8169ZM95.5589 27.117C95.3269 27.6586 94.9963 28.1522 94.5837 28.5728C94.1617 28.9985 93.6594 29.3362 93.1059 29.5664C92.5524 29.7966 91.9588 29.9148 91.3593 29.914C90.7533 29.9174 90.153 29.7957 89.5962 29.5563C89.0543 29.3229 88.5613 28.9892 88.1433 28.5728C87.7312 28.1536 87.403 27.6595 87.1765 27.117C86.9343 26.561 86.8106 25.9605 86.8133 25.354C86.8123 24.7524 86.9303 24.1566 87.1605 23.6008C87.3907 23.0451 87.7285 22.5403 88.1545 22.1156C88.5732 21.7029 89.0662 21.373 89.6074 21.1432C90.164 20.9072 90.7632 20.7883 91.3677 20.794C91.9784 20.7925 92.5829 20.9152 93.1448 21.1544C94.2377 21.6116 95.1055 22.4824 95.5589 23.5769C95.8001 24.1382 95.9237 24.743 95.9221 25.354C95.9248 25.9605 95.8011 26.561 95.5589 27.117Z" fill="#C2C0C1"/>
<path d="M102.96 29.939V31.867H102.606C102.148 31.8696 101.695 31.7802 101.273 31.6043C100.862 31.4366 100.49 31.1865 100.18 30.8695C99.8726 30.5518 99.6254 30.1806 99.4511 29.7742C99.265 29.3526 99.1698 28.8966 99.1717 28.4358V13.2721H101.102V28.433C101.101 28.6309 101.138 28.8272 101.213 29.0105C101.288 29.1937 101.399 29.3601 101.539 29.5001C101.678 29.6401 101.845 29.7507 102.028 29.8256C102.211 29.9005 102.408 29.9381 102.606 29.9362L102.96 29.939Z" fill="#C2C0C1"/>
<path d="M128.273 19.1482H126.345V31.6044H128.273V19.1482Z" fill="#C2C0C1"/>
<path d="M142.821 25.3762V31.6155H140.894V25.3762C140.898 24.7672 140.78 24.1636 140.544 23.602C140.318 23.0598 139.988 22.5664 139.575 22.149C139.157 21.7354 138.663 21.4054 138.122 21.1767C137.56 20.9371 136.955 20.8145 136.345 20.8162C135.738 20.8137 135.138 20.9364 134.582 21.1767C134.041 21.4098 133.547 21.7403 133.126 22.1518C132.701 22.5743 132.363 23.0767 132.133 23.6301C131.903 24.1835 131.785 24.7769 131.785 25.3762V31.6155H129.857V25.3762C129.854 24.5056 130.028 23.6434 130.368 22.842C131.024 21.282 132.262 20.0391 133.819 19.3772C134.618 19.0397 135.477 18.8658 136.345 18.8658C137.212 18.8658 138.071 19.0397 138.871 19.3772C139.64 19.7078 140.34 20.1819 140.933 20.7743C141.528 21.3687 142.002 22.0727 142.33 22.8475C142.664 23.6482 142.831 24.5087 142.821 25.3762Z" fill="#C2C0C1"/>
<path d="M146.535 19.1482V36.4242C146.536 36.8859 146.441 37.3428 146.255 37.7654C145.907 38.5828 145.257 39.2337 144.439 39.5816C144.017 39.7657 143.561 39.8608 143.101 39.861H142.752V37.9303H143.104C143.298 37.9342 143.491 37.8974 143.671 37.8224C143.85 37.7473 144.012 37.6356 144.146 37.4944C144.288 37.3561 144.401 37.1899 144.476 37.0063C144.552 36.8227 144.589 36.6255 144.585 36.427V19.1482H146.535Z" fill="#C2C0C1"/>
<path d="M160.478 22.8169C159.822 21.2521 158.578 20.0078 157.013 19.3522C156.21 19.0124 155.347 18.8394 154.476 18.8436C153.612 18.8401 152.756 19.0131 151.961 19.3522C150.784 19.8527 149.78 20.6887 149.075 21.7561C148.37 22.8234 147.995 24.0747 147.996 25.3539C147.993 26.2186 148.168 27.0746 148.51 27.8687C148.842 28.6368 149.316 29.3354 149.907 29.9279C150.499 30.5215 151.199 30.9958 151.97 31.325C152.764 31.6654 153.62 31.8385 154.484 31.8335C155.516 31.8442 156.534 31.6065 157.454 31.1406C158.041 30.8416 158.577 30.4532 159.044 29.9894V31.5764H161V25.3539C161.001 24.4815 160.823 23.6181 160.478 22.8169ZM158.678 27.117C158.446 27.6578 158.116 28.1513 157.706 28.5728C157.291 28.991 156.798 29.3241 156.256 29.5535C155.693 29.7942 155.088 29.9168 154.476 29.9139C153.87 29.9168 153.27 29.7951 152.713 29.5563C152.172 29.3215 151.679 28.988 151.26 28.5728C150.843 28.1542 150.509 27.6602 150.276 27.117C150.037 26.5602 149.915 25.96 149.919 25.3539C149.915 24.7523 150.032 24.1561 150.262 23.6001C150.492 23.0441 150.83 22.5394 151.257 22.1156C151.679 21.7052 152.172 21.3756 152.713 21.1432C153.27 20.9035 153.87 20.7808 154.476 20.7828C155.087 20.7811 155.693 20.9037 156.256 21.1432C156.797 21.3711 157.289 21.7012 157.706 22.1156C158.119 22.5336 158.449 23.0267 158.678 23.5685C158.917 24.1305 159.038 24.7351 159.036 25.3456C159.04 25.9544 158.918 26.5576 158.678 27.117Z" fill="#C2C0C1"/>
<path d="M124.771 14.7418V30.3637C124.773 30.5278 124.742 30.6906 124.68 30.8426C124.618 30.9946 124.527 31.1328 124.411 31.2492C124.295 31.3656 124.158 31.458 124.006 31.5208C123.855 31.5837 123.692 31.6159 123.528 31.6155C123.318 31.6152 123.112 31.5621 122.929 31.461C122.745 31.3599 122.59 31.2141 122.477 31.0371L114.478 18.3518V31.6155H112.55V15.9852C112.55 15.6554 112.681 15.3392 112.914 15.106C113.147 14.8728 113.464 14.7418 113.793 14.7418C114.002 14.7436 114.207 14.7977 114.39 14.8992C114.572 15.0008 114.727 15.1465 114.838 15.323L122.838 27.9971V14.7418H124.771Z" fill="#C2C0C1"/>
<path d="M44.3902 38.7071H42.4148V38.193H46.958V38.7071H44.9854V43.812H44.393L44.3902 38.7071Z" fill="#C2C0C1"/>
<path d="M51.8225 41.8783H48.2907C48.3024 42.0839 48.3548 42.2852 48.4447 42.4704C48.5347 42.6557 48.6605 42.8213 48.8148 42.9577C48.9691 43.0941 49.1489 43.1986 49.3438 43.2651C49.5387 43.3316 49.7449 43.3588 49.9504 43.3452C50.1937 43.3515 50.4354 43.3048 50.6588 43.2083C50.8822 43.1118 51.0819 42.9678 51.2441 42.7864L51.5654 43.1552C51.3614 43.383 51.1096 43.5629 50.828 43.6822C50.5464 43.8015 50.242 43.8572 49.9364 43.8453C48.6176 43.8453 47.7207 42.9484 47.7207 41.6939C47.7207 40.4393 48.5953 39.5508 49.7828 39.5508C50.9703 39.5508 51.8309 40.4253 51.8309 41.6939C51.8309 41.7498 51.8225 41.814 51.8225 41.8783ZM48.2907 41.4508H51.2832C51.2549 41.0733 51.085 40.7205 50.8075 40.463C50.5301 40.2055 50.1655 40.0624 49.787 40.0624C49.4084 40.0624 49.0439 40.2055 48.7664 40.463C48.4889 40.7205 48.319 41.0733 48.2907 41.4508Z" fill="#C2C0C1"/>
<path d="M53.3677 41.6994C53.3581 41.4128 53.4081 41.1273 53.5143 40.8609C53.6206 40.5945 53.7809 40.353 53.9851 40.1516C54.1894 39.9503 54.4331 39.7934 54.701 39.691C54.9689 39.5885 55.2551 39.5427 55.5416 39.5563C55.8667 39.5378 56.191 39.6056 56.4814 39.7528C56.7719 39.9 57.0183 40.1214 57.1957 40.3946L56.771 40.674C56.6349 40.475 56.451 40.3135 56.2362 40.2041C56.0213 40.0947 55.7825 40.0411 55.5416 40.0481C55.1051 40.0481 54.6865 40.2215 54.3779 40.5301C54.0692 40.8388 53.8958 41.2574 53.8958 41.6938C53.8958 42.1303 54.0692 42.5489 54.3779 42.8575C54.6865 43.1662 55.1051 43.3396 55.5416 43.3396C55.7819 43.3483 56.0205 43.2962 56.2354 43.1883C56.4503 43.0804 56.6345 42.92 56.771 42.7221L57.1957 43.0015C57.0171 43.2734 56.7705 43.4939 56.4803 43.6409C56.1901 43.788 55.8665 43.8565 55.5416 43.8397C55.2556 43.8521 54.9702 43.8055 54.7031 43.7027C54.436 43.6 54.1929 43.4434 53.9889 43.2426C53.785 43.0418 53.6246 42.8011 53.5177 42.5357C53.4109 42.2702 53.3598 41.9855 53.3677 41.6994Z" fill="#C2C0C1"/>
<path d="M62.9376 41.3642V43.8118H62.3788V41.42C62.3788 40.5287 61.9122 40.0705 61.1103 40.0705C60.2022 40.0705 59.6322 40.6293 59.6322 41.5961V43.8118H59.0734V37.8547H59.6322V40.3275C59.8074 40.0733 60.0453 39.8688 60.3229 39.7337C60.6005 39.5985 60.9083 39.5375 61.2165 39.5564C62.2307 39.5564 62.9376 40.1515 62.9376 41.3642Z" fill="#C2C0C1"/>
<path d="M69.1741 41.3642V43.8119H68.6153V41.4201C68.6153 40.5288 68.1486 40.0705 67.3467 40.0705C66.4386 40.0705 65.8686 40.6294 65.8686 41.5961V43.8119H65.3098V39.5899H65.8686V40.3667C66.0398 40.1013 66.2787 39.8863 66.5606 39.7439C66.8425 39.6015 67.1572 39.5368 67.4725 39.5564C68.456 39.5564 69.1741 40.1516 69.1741 41.3642Z" fill="#C2C0C1"/>
<path d="M71.1159 41.6995C71.1165 41.2747 71.2429 40.8597 71.4792 40.5068C71.7155 40.1539 72.0511 39.8789 72.4436 39.7166C72.8361 39.5543 73.2679 39.512 73.6845 39.595C74.101 39.678 74.4836 39.8826 74.7839 40.1829C75.0843 40.4833 75.2889 40.8659 75.3719 41.2824C75.4549 41.6989 75.4125 42.1307 75.2503 42.5232C75.088 42.9157 74.813 43.2514 74.4601 43.4877C74.1072 43.724 73.6921 43.8504 73.2674 43.8509C72.982 43.8615 72.6975 43.8131 72.4317 43.7087C72.1659 43.6043 71.9245 43.4462 71.7226 43.2443C71.5206 43.0424 71.3625 42.801 71.2581 42.5351C71.1538 42.2693 71.1054 41.9848 71.1159 41.6995ZM74.8321 41.6995C74.8173 41.3923 74.7127 41.0962 74.5312 40.848C74.3496 40.5998 74.0992 40.4103 73.811 40.3031C73.5227 40.1959 73.2094 40.1757 72.9098 40.245C72.6102 40.3143 72.3375 40.4701 72.1256 40.6929C71.9137 40.9158 71.7719 41.196 71.7178 41.4987C71.6637 41.8014 71.6997 42.1134 71.8213 42.3958C71.9429 42.6783 72.1448 42.9188 72.4018 43.0876C72.6589 43.2564 72.9599 43.3459 73.2674 43.3452C74.1643 43.3508 74.8321 42.6886 74.8321 41.6995Z" fill="#C2C0C1"/>
<path d="M77.3749 37.8547H77.9337V43.8118H77.3749V37.8547Z" fill="#C2C0C1"/>
<path d="M79.9118 41.6995C79.9124 41.2747 80.0388 40.8597 80.2751 40.5068C80.5114 40.1539 80.847 39.8789 81.2395 39.7166C81.632 39.5543 82.0638 39.512 82.4804 39.595C82.8969 39.678 83.2795 39.8826 83.5798 40.1829C83.8802 40.4833 84.0848 40.8659 84.1678 41.2824C84.2508 41.6989 84.2084 42.1307 84.0462 42.5232C83.8839 42.9157 83.6089 43.2514 83.256 43.4877C82.9031 43.724 82.488 43.8504 82.0633 43.8509C81.7779 43.8615 81.4934 43.8131 81.2276 43.7087C80.9618 43.6043 80.7204 43.4462 80.5185 43.2443C80.3165 43.0424 80.1584 42.801 80.054 42.5351C79.9497 42.2693 79.9013 41.9848 79.9118 41.6995ZM83.628 41.6995C83.6132 41.3923 83.5086 41.0962 83.3271 40.848C83.1455 40.5998 82.8951 40.4103 82.6069 40.3031C82.3187 40.1959 82.0053 40.1757 81.7057 40.245C81.4061 40.3143 81.1334 40.4701 80.9215 40.6929C80.7096 40.9158 80.5678 41.196 80.5137 41.4987C80.4596 41.8014 80.4956 42.1134 80.6172 42.3958C80.7388 42.6783 80.9407 42.9188 81.1977 43.0876C81.4548 43.2564 81.7558 43.3459 82.0633 43.3452C82.9602 43.3508 83.628 42.6886 83.628 41.6995Z" fill="#C2C0C1"/>
<path d="M90.0796 39.5899V43.2977C90.0796 44.7507 89.3671 45.4101 87.9701 45.4101C87.261 45.4353 86.5667 45.2041 86.0142 44.759L86.2936 44.326C86.76 44.7127 87.3503 44.9181 87.9561 44.9043C89.0234 44.9043 89.5124 44.4126 89.5124 43.3704V42.8311C89.3306 43.0958 89.0843 43.3098 88.7969 43.4531C88.5095 43.5963 88.1903 43.664 87.8695 43.6498C87.593 43.6636 87.3166 43.6205 87.0575 43.523C86.7984 43.4256 86.5621 43.2759 86.3632 43.0834C86.1644 42.8908 86.0072 42.6594 85.9015 42.4036C85.7958 42.1477 85.7438 41.8729 85.7487 41.5961C85.7487 40.3834 86.6652 39.5564 87.8695 39.5564C88.1975 39.5398 88.5242 39.6083 88.8179 39.7551C89.1116 39.902 89.3624 40.1223 89.5459 40.3946V39.5843L90.0796 39.5899ZM89.5208 41.5961C89.5308 41.2776 89.4455 40.9634 89.2759 40.6936C89.1063 40.4239 88.8601 40.2109 88.5687 40.0819C88.2774 39.9528 87.9541 39.9137 87.6404 39.9695C87.3267 40.0252 87.0367 40.1733 86.8077 40.3948C86.5786 40.6163 86.4208 40.9011 86.3545 41.2128C86.2883 41.5245 86.3165 41.8488 86.4356 42.1444C86.5547 42.4399 86.7593 42.6932 87.0232 42.8718C87.2871 43.0503 87.5983 43.1461 87.917 43.1468C88.127 43.161 88.3376 43.131 88.5354 43.0588C88.7331 42.9867 88.9136 42.874 89.0651 42.7279C89.2167 42.5819 89.3361 42.4057 89.4155 42.2108C89.4949 42.0159 89.5327 41.8065 89.5264 41.5961H89.5208Z" fill="#C2C0C1"/>
<path d="M92.3513 38.2571C92.3535 38.1486 92.3985 38.0455 92.4765 37.9701C92.5545 37.8947 92.6592 37.8532 92.7676 37.8547C92.8211 37.8529 92.8743 37.8616 92.9244 37.8804C92.9744 37.8993 93.0203 37.9278 93.0592 37.9644C93.0982 38.0011 93.1295 38.045 93.1514 38.0938C93.1733 38.1426 93.1853 38.1953 93.1867 38.2487C93.1867 38.3599 93.1426 38.4665 93.064 38.5451C92.9854 38.6237 92.8788 38.6678 92.7676 38.6678C92.6565 38.6678 92.5499 38.6237 92.4713 38.5451C92.3927 38.4665 92.3485 38.3599 92.3485 38.2487L92.3513 38.2571ZM92.4798 39.5899H93.0387V43.8118H92.4798V39.5899Z" fill="#C2C0C1"/>
<path d="M99.1187 41.8783H95.5869C95.598 42.0834 95.6494 42.2843 95.7384 42.4695C95.8273 42.6546 95.952 42.8204 96.1051 42.9572C96.2583 43.094 96.437 43.1992 96.631 43.2668C96.825 43.3343 97.0304 43.3629 97.2354 43.3508C97.4787 43.3571 97.7205 43.3104 97.9439 43.2139C98.1673 43.1174 98.367 42.9734 98.5291 42.792L98.8504 43.1608C98.6464 43.3886 98.3946 43.5685 98.113 43.6878C97.8315 43.8071 97.5271 43.8628 97.2215 43.851C95.9027 43.851 95.0057 42.954 95.0057 41.6995C95.0057 40.4449 95.8803 39.5564 97.0678 39.5564C98.2553 39.5564 99.1159 40.431 99.1159 41.6995C99.1271 41.7498 99.1187 41.814 99.1187 41.8783ZM95.5869 41.4508H98.5794C98.5511 41.0733 98.3812 40.7205 98.1038 40.463C97.8263 40.2055 97.4617 40.0624 97.0832 40.0624C96.7046 40.0624 96.3401 40.2055 96.0626 40.463C95.7851 40.7205 95.6152 41.0733 95.5869 41.4508Z" fill="#C2C0C1"/>
<path d="M100.504 43.3313L100.761 42.8814C101.2 43.1925 101.727 43.3568 102.265 43.3508C103.069 43.3508 103.399 43.0714 103.399 42.6607C103.399 41.5626 100.661 42.4288 100.661 40.7579C100.661 40.0677 101.253 39.5536 102.337 39.5536C102.861 39.5462 103.377 39.6825 103.829 39.9476L103.581 40.4058C103.213 40.1614 102.779 40.0356 102.337 40.0454C101.575 40.0454 101.236 40.3416 101.236 40.7411C101.236 41.8811 103.975 41.0205 103.975 42.6439C103.975 43.376 103.332 43.8482 102.231 43.8482C101.615 43.8687 101.008 43.6871 100.504 43.3313Z" fill="#C2C0C1"/>
</svg>
