<svg width="199" height="56" viewBox="0 0 199 56" fill="none" xmlns="http://www.w3.org/2000/svg">
<g clip-path="url(#clip0_158_1338)">
<path d="M39.2529 31.8645C38.7412 35.8335 37.1463 39.5856 34.6427 42.7103C32.1391 45.835 28.8232 48.2121 25.0577 49.5816L20.5228 51.2302C20.3332 51.2996 20.1297 51.3223 19.9295 51.2963C19.7293 51.2703 19.5384 51.1965 19.3729 51.081C19.2074 50.9655 19.0723 50.8119 18.9791 50.6331C18.8858 50.4543 18.8372 50.2557 18.8373 50.0541V36.4757C18.8374 36.1808 18.9412 35.8953 19.1306 35.6691C19.3199 35.4428 19.5828 35.2901 19.8734 35.2375L39.2529 31.8645Z" fill="#FD3600"/>
<path d="M39.4326 29.0778C39.4326 29.1847 39.4326 29.2916 39.4326 29.3985L12.1887 32.3163C12.0139 32.3342 11.8373 32.3152 11.6704 32.2606C11.5034 32.2059 11.3499 32.1169 11.2196 31.9991C11.0893 31.8814 10.9853 31.7377 10.9143 31.5772C10.8432 31.4168 10.8067 31.2432 10.8071 31.0678V23.5768C10.8072 23.4016 10.844 23.2284 10.9153 23.0684C10.9866 22.9084 11.0907 22.7651 11.2209 22.6477C11.3511 22.5304 11.5045 22.4416 11.6712 22.3872C11.8379 22.3328 12.0142 22.3139 12.1887 22.3317L39.0872 25.2116C39.3159 26.4877 39.4315 27.7814 39.4326 29.0778Z" fill="#FF6602"/>
<path d="M38.5829 23.056L10.8002 18.2275L1.03615 16.5134C0.74555 16.4623 0.482322 16.3104 0.292795 16.0846C0.103268 15.8587 -0.000412271 15.5733 1.2321e-06 15.2787V1.2554C0.000127672 1.0538 0.0488727 0.8552 0.142113 0.676389C0.235354 0.497578 0.370348 0.34382 0.535677 0.228119C0.701006 0.112419 0.891808 0.0381787 1.09194 0.011679C1.29208 -0.0148207 1.49566 0.00719905 1.68548 0.0758759L25.0576 8.57745C28.2959 9.75446 31.2094 11.6798 33.56 14.1961C35.9107 16.7125 37.6318 19.7484 38.5829 23.056Z" fill="#FFA501"/>
<path d="M72.0678 18.1447H69.6847V21.4833H72.0678V18.1447Z" fill="#1F1E1E"/>
<path d="M94.1206 18.1447H91.734V21.4833H94.1206V18.1447Z" fill="#1F1E1E"/>
<path d="M158.559 18.1447H156.176V21.4833H158.559V18.1447Z" fill="#1F1E1E"/>
<path d="M181.133 18.1447H178.723V21.4833H181.133V18.1447Z" fill="#1F1E1E"/>
<path d="M67.312 21.8006C66.901 20.8486 66.3153 19.9818 65.585 19.2449C64.8386 18.4944 63.9507 17.899 62.9726 17.4929C61.9944 17.0868 60.9455 16.8782 59.8862 16.879H52.4259V38.99H59.8931C60.9504 38.9913 61.9976 38.7845 62.9748 38.3815C63.9521 37.9785 64.8402 37.3872 65.5885 36.6413C66.3208 35.9127 66.907 35.0511 67.3154 34.1029C67.734 33.1216 67.9478 32.0654 67.944 30.9988V24.9184C67.9495 23.8469 67.7344 22.7856 67.312 21.8006ZM65.5298 30.9816C65.5338 31.7296 65.3833 32.4705 65.0877 33.1579C64.7975 33.8254 64.3892 34.4353 63.8823 34.9582C63.3606 35.4844 62.7391 35.9014 62.0542 36.1851C61.3693 36.4687 60.6346 36.6133 59.8931 36.6102H54.8091V19.2898H59.8931C60.6493 19.2856 61.3982 19.4371 62.0932 19.7347C62.7621 20.017 63.3714 20.4231 63.8892 20.9315C64.3963 21.4501 64.8026 22.0582 65.0877 22.7249C65.3817 23.4188 65.532 24.1649 65.5298 24.9184V30.9816Z" fill="#1F1E1E"/>
<path d="M72.0678 23.5837H69.6847V38.9589H72.0678V23.5837Z" fill="#1F1E1E"/>
<path d="M89.4546 28.1983C89.0504 27.2426 88.4639 26.3746 87.7276 25.6427C86.9974 24.9106 86.1333 24.3252 85.1822 23.9182C84.1941 23.504 83.1332 23.2906 82.0616 23.2906C80.99 23.2906 79.9291 23.504 78.9411 23.9182C77.0144 24.7339 75.4827 26.2683 74.6721 28.1949C74.2528 29.1857 74.0378 30.2508 74.0401 31.3265C74.0391 32.3931 74.254 33.4489 74.6721 34.4305C75.4891 36.3467 77.018 37.8722 78.9376 38.6865C79.92 39.1059 80.9777 39.3206 82.0461 39.3176C82.5465 39.3148 83.0418 39.417 83.5001 39.6177C83.9414 39.81 84.3431 40.0825 84.6848 40.4213C85.0283 40.7623 85.3027 41.1663 85.493 41.6111C85.689 42.0684 85.7901 42.5606 85.7901 43.058C85.7901 43.5553 85.689 44.0475 85.493 44.5048C85.3119 44.924 85.0581 45.3081 84.7435 45.6395H87.6033C87.6309 45.5774 87.6586 45.5153 87.6896 45.4532C88.0132 44.6968 88.1778 43.8822 88.1732 43.0597C88.1839 42.0055 87.9197 40.9666 87.4064 40.0453C87.0323 39.3829 86.5353 38.7977 85.942 38.3209C86.3886 38.074 86.8107 37.7853 87.2027 37.4586C87.7917 36.9728 88.305 36.402 88.7258 35.7652C89.5998 34.447 90.0647 32.9005 90.0624 31.3196C90.0729 30.2489 89.8661 29.1871 89.4546 28.1983ZM87.2614 33.5062C86.9745 34.1737 86.567 34.7828 86.0594 35.3031C85.5469 35.8222 84.9365 36.2348 84.2634 36.5171C83.5712 36.8073 82.8279 36.9569 82.0772 36.9569C81.3264 36.9569 80.5831 36.8073 79.8909 36.5171C79.219 36.2307 78.6082 35.8187 78.0914 35.3031C77.5774 34.7852 77.165 34.1757 76.8757 33.5062C76.5791 32.8191 76.4286 32.0781 76.4336 31.3299C76.4299 30.5774 76.5803 29.8321 76.8757 29.1399C77.1587 28.4688 77.5706 27.8595 78.088 27.3464C78.6103 26.8395 79.2214 26.4327 79.8909 26.1462C80.5784 25.848 81.3207 25.6965 82.0702 25.7013C82.8275 25.6973 83.5776 25.8487 84.2738 26.1462C84.9463 26.4236 85.5572 26.8308 86.0717 27.3445C86.5862 27.8583 86.994 28.4684 87.2717 29.1399C87.569 29.8316 87.7195 30.5773 87.7138 31.3299C87.7151 32.0795 87.5586 32.8209 87.2545 33.5062H87.2614Z" fill="#1F1E1E"/>
<path d="M94.1206 23.5837H91.734V38.9589H94.1206V23.5837Z" fill="#1F1E1E"/>
<path d="M104.52 34.5236V34.9582C104.523 35.5224 104.414 36.0816 104.199 36.6033C103.983 37.1067 103.667 37.5609 103.27 37.938C102.882 38.3139 102.431 38.6186 101.937 38.8382C101.419 39.0683 100.859 39.1859 100.293 39.1831C99.7233 39.1828 99.1601 39.0654 98.6382 38.8382C98.1396 38.6221 97.6852 38.3158 97.2982 37.9346C96.9149 37.548 96.6079 37.0929 96.3933 36.593C96.1639 36.0724 96.0462 35.5097 96.0479 34.9409V19.8416H98.4345V23.6354H103.926V26.0152H98.4345V34.9513C98.4296 35.1914 98.4751 35.4298 98.5679 35.6513C98.6606 35.8728 98.7987 36.0726 98.9733 36.2377C99.1442 36.4135 99.3496 36.5523 99.5766 36.6455C99.8036 36.7386 100.047 36.7841 100.293 36.7792C100.776 36.7738 101.239 36.5795 101.581 36.2379C101.923 35.8962 102.118 35.4344 102.123 34.9513V34.5236H104.52Z" fill="#1F1E1E"/>
<path d="M120.363 28.1121C119.55 26.1826 118.012 24.6475 116.08 23.8354C115.087 23.4156 114.019 23.202 112.941 23.2077C111.872 23.2034 110.815 23.417 109.832 23.8354C107.907 24.6538 106.377 26.1874 105.563 28.1121C105.146 29.1034 104.934 30.1685 104.938 31.2437C104.934 32.3103 105.148 33.3666 105.567 34.3477C105.977 35.2958 106.563 36.1581 107.294 36.8896C108.025 37.6216 108.89 38.2069 109.843 38.614C110.824 39.0349 111.883 39.2486 112.951 39.2417C113.995 39.2549 115.032 39.0605 116 38.6697C116.968 38.2789 117.849 37.6995 118.591 36.9654V38.9244H121.009V31.2437C121.008 30.1669 120.788 29.1015 120.363 28.1121ZM118.121 33.42C117.835 34.0884 117.426 34.6977 116.916 35.2168C116.394 35.7423 115.773 36.1592 115.089 36.4433C114.405 36.7275 113.671 36.8733 112.93 36.8723C112.181 36.8766 111.439 36.7263 110.751 36.4309C110.081 36.1428 109.472 35.7309 108.955 35.2168C108.445 34.6994 108.04 34.0895 107.76 33.42C107.46 32.7336 107.308 31.9924 107.311 31.2437C107.31 30.5012 107.456 29.7658 107.74 29.0797C108.025 28.3937 108.442 27.7707 108.969 27.2464C109.486 26.737 110.096 26.3298 110.765 26.0462C111.453 25.7549 112.193 25.6081 112.941 25.6151C113.695 25.6133 114.443 25.7647 115.137 26.06C116.488 26.6243 117.561 27.6992 118.121 29.0502C118.42 29.743 118.572 30.4896 118.57 31.2437C118.574 31.9924 118.421 32.7336 118.121 33.42Z" fill="#1F1E1E"/>
<path d="M127.271 36.9034V39.2831H126.832C126.267 39.2863 125.706 39.1761 125.184 38.9589C124.677 38.7518 124.217 38.4431 123.834 38.0519C123.454 37.6598 123.148 37.2016 122.933 36.6999C122.703 36.1795 122.585 35.6166 122.587 35.0479V16.3306H124.974V35.0444C124.971 35.2887 125.018 35.531 125.111 35.7572C125.203 35.9834 125.34 36.1888 125.513 36.3616C125.686 36.5343 125.892 36.6709 126.118 36.7634C126.345 36.8558 126.587 36.9022 126.832 36.8999L127.271 36.9034Z" fill="#1F1E1E"/>
<path d="M158.559 23.5837H156.176V38.9589H158.559V23.5837Z" fill="#1F1E1E"/>
<path d="M176.543 31.2713V38.9727H174.16V31.2713C174.166 30.5196 174.019 29.7745 173.728 29.0812C173.448 28.412 173.041 27.803 172.53 27.2878C172.013 26.7773 171.403 26.3699 170.734 26.0876C170.039 25.7919 169.292 25.6405 168.537 25.6427C167.788 25.6396 167.046 25.791 166.358 26.0876C165.689 26.3753 165.079 26.7833 164.558 27.2912C164.033 27.8128 163.616 28.4329 163.331 29.116C163.047 29.799 162.9 30.5315 162.9 31.2713V38.9727H160.517V31.2713C160.514 30.1966 160.729 29.1323 161.149 28.1431C161.96 26.2176 163.49 24.6835 165.415 23.8665C166.403 23.4499 167.465 23.2352 168.537 23.2352C169.61 23.2352 170.671 23.4499 171.659 23.8665C172.611 24.2745 173.476 24.8597 174.208 25.5909C174.944 26.3246 175.53 27.1936 175.935 28.15C176.348 29.1383 176.555 30.2004 176.543 31.2713Z" fill="#1F1E1E"/>
<path d="M181.133 23.5837V44.9083C181.135 45.4782 181.018 46.0421 180.788 46.5638C180.358 47.5727 179.553 48.3761 178.543 48.8056C178.021 49.0328 177.458 49.1502 176.889 49.1505H176.457V46.7673H176.892C177.132 46.7721 177.371 46.7267 177.593 46.6341C177.815 46.5414 178.015 46.4035 178.18 46.2292C178.356 46.0585 178.495 45.8534 178.589 45.6268C178.682 45.4001 178.727 45.1567 178.723 44.9117V23.5837H181.133Z" fill="#1F1E1E"/>
<path d="M198.368 28.1121C197.558 26.1807 196.019 24.6447 194.085 23.8354C193.093 23.416 192.026 23.2025 190.949 23.2077C189.881 23.2033 188.823 23.4169 187.841 23.8354C186.385 24.4532 185.145 25.4852 184.273 26.8027C183.401 28.1201 182.938 29.6647 182.94 31.2437C182.936 32.311 183.152 33.3676 183.575 34.3477C183.986 35.2959 184.572 36.1582 185.302 36.8896C186.033 37.6223 186.898 38.2078 187.851 38.614C188.833 39.0342 189.891 39.2479 190.959 39.2417C192.234 39.2549 193.494 38.9616 194.631 38.3864C195.356 38.0174 196.019 37.538 196.596 36.9655V38.9244H199.014V31.2437C199.015 30.1668 198.795 29.101 198.368 28.1121ZM196.144 33.42C195.857 34.0875 195.449 34.6966 194.942 35.2169C194.429 35.7331 193.82 36.1443 193.149 36.4274C192.454 36.7245 191.705 36.8759 190.949 36.8723C190.2 36.8759 189.458 36.7256 188.77 36.4309C188.101 36.1411 187.492 35.7294 186.974 35.2169C186.458 34.7002 186.046 34.0904 185.758 33.42C185.462 32.7326 185.312 31.9918 185.316 31.2437C185.312 30.5011 185.456 29.7651 185.74 29.0788C186.024 28.3925 186.442 27.7696 186.97 27.2464C187.492 26.7399 188.101 26.3331 188.77 26.0462C189.458 25.7503 190.2 25.5989 190.949 25.6013C191.705 25.5992 192.454 25.7505 193.149 26.0462C193.818 26.3275 194.427 26.735 194.942 27.2464C195.453 27.7624 195.861 28.3711 196.144 29.0398C196.438 29.7336 196.589 30.4798 196.586 31.2334C196.591 31.9849 196.441 32.7294 196.144 33.42Z" fill="#1F1E1E"/>
<path d="M154.231 18.1447V37.4276C154.233 37.6301 154.195 37.831 154.118 38.0187C154.042 38.2063 153.929 38.3769 153.786 38.5206C153.643 38.6643 153.473 38.7782 153.286 38.8558C153.098 38.9335 152.897 38.9732 152.694 38.9727C152.435 38.9724 152.18 38.9068 151.953 38.782C151.726 38.6572 151.535 38.4773 151.396 38.2588L141.507 22.6007V38.9727H139.124V19.6795C139.124 19.2725 139.286 18.8821 139.574 18.5943C139.863 18.3064 140.254 18.1447 140.661 18.1447C140.919 18.1469 141.173 18.2137 141.399 18.339C141.624 18.4644 141.815 18.6442 141.953 18.8621L151.841 34.5064V18.1447H154.231Z" fill="#1F1E1E"/>
<path d="M54.8712 47.7261H52.4293V47.0915H58.0453V47.7261H55.6069V54.0272H54.8746L54.8712 47.7261Z" fill="#1F1E1E"/>
<path d="M64.0584 51.6406H59.6927C59.7072 51.8944 59.772 52.1428 59.8831 52.3715C59.9943 52.6002 60.1498 52.8046 60.3405 52.973C60.5313 53.1413 60.7536 53.2703 60.9945 53.3524C61.2355 53.4345 61.4903 53.4681 61.7443 53.4513C62.045 53.4591 62.3438 53.4014 62.62 53.2823C62.8961 53.1632 63.143 52.9855 63.3435 52.7615L63.7406 53.2167C63.4884 53.4979 63.1772 53.72 62.8291 53.8672C62.4811 54.0145 62.1048 54.0833 61.7271 54.0686C60.0968 54.0686 58.9882 52.9615 58.9882 51.413C58.9882 49.8644 60.0692 48.7676 61.5371 48.7676C63.005 48.7676 64.0688 49.8471 64.0688 51.413C64.0688 51.4819 64.0584 51.5613 64.0584 51.6406ZM59.6927 51.1129H63.3918C63.3569 50.6469 63.1468 50.2114 62.8038 49.8936C62.4608 49.5758 62.0102 49.3992 61.5423 49.3992C61.0744 49.3992 60.6237 49.5758 60.2807 49.8936C59.9377 50.2114 59.7277 50.6469 59.6927 51.1129Z" fill="#1F1E1E"/>
<path d="M65.9684 51.4199C65.9565 51.066 66.0182 50.7136 66.1495 50.3848C66.2809 50.0559 66.479 49.7579 66.7315 49.5093C66.984 49.2608 67.2853 49.0672 67.6164 48.9407C67.9475 48.8142 68.3013 48.7577 68.6554 48.7745C69.0574 48.7517 69.4582 48.8353 69.8172 49.017C70.1763 49.1988 70.4809 49.472 70.7001 49.8092L70.1751 50.1541C70.0069 49.9085 69.7796 49.7091 69.514 49.5741C69.2485 49.4391 68.9533 49.3729 68.6554 49.3815C68.1159 49.3815 67.5985 49.5956 67.217 49.9765C66.8355 50.3575 66.6211 50.8742 66.6211 51.413C66.6211 51.9517 66.8355 52.4684 67.217 52.8494C67.5985 53.2303 68.1159 53.4444 68.6554 53.4444C68.9525 53.4551 69.2475 53.3909 69.5131 53.2577C69.7787 53.1244 70.0064 52.9265 70.1751 52.6822L70.7001 53.027C70.4794 53.3627 70.1745 53.6348 69.8158 53.8164C69.4571 53.9979 69.057 54.0825 68.6554 54.0617C68.302 54.077 67.9492 54.0195 67.619 53.8926C67.2888 53.7658 66.9883 53.5725 66.7362 53.3246C66.4841 53.0768 66.2859 52.7798 66.1538 52.4521C66.0217 52.1243 65.9585 51.773 65.9684 51.4199Z" fill="#1F1E1E"/>
<path d="M77.7978 51.006V54.0272H77.107V51.075C77.107 49.9748 76.5302 49.4091 75.539 49.4091C74.4165 49.4091 73.7119 50.0989 73.7119 51.2922V54.0272H73.0211V46.6741H73.7119V49.7264C73.9285 49.4127 74.2226 49.1602 74.5657 48.9934C74.9088 48.8266 75.2893 48.7512 75.6702 48.7745C76.924 48.7745 77.7978 49.5092 77.7978 51.006Z" fill="#1F1E1E"/>
<path d="M85.5068 51.006V54.0272H84.816V51.0749C84.816 49.9747 84.2392 49.4091 83.248 49.4091C82.1255 49.4091 81.4209 50.0989 81.4209 51.2922V54.0272H80.7301V48.8159H81.4209V49.7747C81.6325 49.4471 81.9277 49.1818 82.2762 49.006C82.6246 48.8302 83.0137 48.7503 83.4034 48.7745C84.6191 48.7745 85.5068 49.5091 85.5068 51.006Z" fill="#1F1E1E"/>
<path d="M87.9072 51.4199C87.9078 50.8956 88.0641 50.3833 88.3562 49.9477C88.6483 49.512 89.0632 49.1726 89.5483 48.9723C90.0335 48.772 90.5673 48.7198 91.0822 48.8222C91.597 48.9247 92.07 49.1772 92.4412 49.5479C92.8125 49.9186 93.0654 50.3909 93.168 50.905C93.2705 51.4192 93.2182 51.9522 93.0176 52.4367C92.817 52.9212 92.4771 53.3354 92.0409 53.6271C91.6047 53.9188 91.0916 54.0748 90.5666 54.0755C90.2139 54.0886 89.8622 54.0288 89.5336 53.9C89.205 53.7711 88.9066 53.576 88.657 53.3267C88.4074 53.0775 88.212 52.7795 88.083 52.4514C87.9539 52.1233 87.8941 51.7721 87.9072 51.4199ZM92.5008 51.4199C92.4825 51.0407 92.3531 50.6753 92.1288 50.3688C91.9044 50.0624 91.5948 49.8286 91.2385 49.6963C90.8823 49.5639 90.4949 49.539 90.1246 49.6245C89.7542 49.7101 89.4171 49.9023 89.1552 50.1774C88.8933 50.4525 88.718 50.7984 88.6512 51.172C88.5843 51.5457 88.6288 51.9308 88.7791 52.2794C88.9294 52.6281 89.1789 52.925 89.4967 53.1333C89.8144 53.3416 90.1865 53.4522 90.5666 53.4513C91.6753 53.4582 92.5008 52.6408 92.5008 51.4199Z" fill="#1F1E1E"/>
<path d="M95.6438 46.6741H96.3346V54.0272H95.6438V46.6741Z" fill="#1F1E1E"/>
<path d="M98.7798 51.4199C98.7805 50.8956 98.9368 50.3833 99.2289 49.9477C99.521 49.512 99.9358 49.1726 100.421 48.9723C100.906 48.772 101.44 48.7198 101.955 48.8222C102.47 48.9247 102.943 49.1772 103.314 49.5479C103.685 49.9186 103.938 50.3909 104.041 50.905C104.143 51.4192 104.091 51.9522 103.89 52.4367C103.69 52.9212 103.35 53.3354 102.914 53.6271C102.477 53.9188 101.964 54.0748 101.439 54.0755C101.087 54.0886 100.735 54.0288 100.406 53.9C100.078 53.7711 99.7793 53.576 99.5297 53.3267C99.2801 53.0775 99.0847 52.7795 98.9556 52.4514C98.8266 52.1233 98.7668 51.7721 98.7798 51.4199ZM103.373 51.4199C103.355 51.0407 103.226 50.6753 103.001 50.3688C102.777 50.0624 102.468 49.8286 102.111 49.6963C101.755 49.5639 101.368 49.539 100.997 49.6245C100.627 49.7101 100.29 49.9023 100.028 50.1774C99.766 50.4525 99.5907 50.7984 99.5238 51.172C99.457 51.5457 99.5015 51.9308 99.6518 52.2794C99.8021 52.6281 100.052 52.925 100.369 53.1333C100.687 53.3416 101.059 53.4522 101.439 53.4513C102.548 53.4582 103.373 52.6408 103.373 51.4199Z" fill="#1F1E1E"/>
<path d="M111.348 48.8159V53.3926C111.348 55.1861 110.468 56 108.741 56C107.864 56.0311 107.006 55.7458 106.323 55.1964L106.668 54.6618C107.245 55.1393 107.975 55.3928 108.723 55.3757C110.043 55.3757 110.647 54.7687 110.647 53.4823V52.8167C110.422 53.1434 110.118 53.4076 109.763 53.5844C109.407 53.7612 109.013 53.8447 108.616 53.8272C108.275 53.8443 107.933 53.791 107.613 53.6707C107.292 53.5505 107 53.3657 106.754 53.128C106.509 52.8903 106.314 52.6047 106.184 52.2889C106.053 51.9731 105.989 51.6339 105.995 51.2922C105.995 49.7954 107.128 48.7745 108.616 48.7745C109.022 48.7541 109.426 48.8386 109.789 49.0199C110.152 49.2011 110.462 49.473 110.689 49.8092V48.809L111.348 48.8159ZM110.658 51.2922C110.67 50.8991 110.565 50.5112 110.355 50.1783C110.145 49.8453 109.841 49.5824 109.481 49.4231C109.121 49.2639 108.721 49.2156 108.333 49.2844C107.945 49.3532 107.587 49.536 107.304 49.8094C107.021 50.0828 106.826 50.4344 106.744 50.8191C106.662 51.2038 106.697 51.6042 106.844 51.969C106.991 52.3338 107.244 52.6464 107.57 52.8668C107.897 53.0873 108.281 53.2055 108.675 53.2064C108.935 53.2238 109.195 53.1868 109.439 53.0978C109.684 53.0087 109.907 52.8696 110.094 52.6893C110.282 52.509 110.429 52.2916 110.527 52.051C110.626 51.8104 110.672 51.5519 110.665 51.2922H110.658Z" fill="#1F1E1E"/>
<path d="M114.156 47.1708C114.159 47.0369 114.215 46.9096 114.311 46.8165C114.408 46.7235 114.537 46.6723 114.671 46.6741C114.737 46.6718 114.803 46.6826 114.865 46.7059C114.927 46.7291 114.983 46.7643 115.031 46.8096C115.08 46.8548 115.118 46.909 115.145 46.9693C115.172 47.0295 115.187 47.0945 115.189 47.1604C115.189 47.2977 115.135 47.4292 115.037 47.5263C114.94 47.6233 114.808 47.6778 114.671 47.6778C114.534 47.6778 114.402 47.6233 114.305 47.5263C114.208 47.4292 114.153 47.2977 114.153 47.1604L114.156 47.1708ZM114.315 48.8159H115.006V54.0272H114.315V48.8159Z" fill="#1F1E1E"/>
<path d="M122.522 51.6406H118.156C118.17 51.8937 118.233 52.1417 118.343 52.3703C118.453 52.5988 118.607 52.8034 118.796 52.9723C118.986 53.1412 119.207 53.271 119.447 53.3544C119.686 53.4378 119.94 53.4731 120.194 53.4582C120.494 53.466 120.793 53.4083 121.069 53.2892C121.345 53.1701 121.592 52.9924 121.793 52.7684L122.19 53.2236C121.938 53.5048 121.627 53.7269 121.278 53.8741C120.93 54.0214 120.554 54.0901 120.176 54.0755C118.546 54.0755 117.438 52.9684 117.438 51.4198C117.438 49.8713 118.519 48.7745 119.986 48.7745C121.454 48.7745 122.518 49.854 122.518 51.4198C122.532 51.4819 122.522 51.5613 122.522 51.6406ZM118.156 51.1129H121.855C121.82 50.6469 121.61 50.2114 121.267 49.8936C120.924 49.5758 120.473 49.3992 120.005 49.3992C119.538 49.3992 119.087 49.5758 118.744 49.8936C118.401 50.2114 118.191 50.6469 118.156 51.1129Z" fill="#1F1E1E"/>
<path d="M124.235 53.434L124.552 52.8787C125.095 53.2627 125.746 53.4655 126.411 53.4582C127.405 53.4582 127.813 53.1133 127.813 52.6063C127.813 51.2508 124.428 52.32 124.428 50.2576C124.428 49.4057 125.16 48.7711 126.5 48.7711C127.148 48.762 127.786 48.9302 128.345 49.2574L128.037 49.823C127.583 49.5213 127.046 49.366 126.5 49.3781C125.558 49.3781 125.14 49.7437 125.14 50.2369C125.14 51.644 128.524 50.5818 128.524 52.5856C128.524 53.4892 127.73 54.0721 126.369 54.0721C125.607 54.0973 124.858 53.8733 124.235 53.434Z" fill="#1F1E1E"/>
</g>
<defs>
<clipPath id="clip0_158_1338">
<rect width="199" height="56" fill="white"/>
</clipPath>
</defs>
</svg>
