<svg width="1273" height="459" viewBox="0 0 1273 459" fill="none" xmlns="http://www.w3.org/2000/svg">
<path d="M482.508 849.115C384.111 838.044 291.092 803.543 213.625 749.386C136.159 695.228 77.2272 623.499 43.2761 542.044L2.40545 443.945C0.684508 439.845 0.121947 435.443 0.765746 431.113C1.40951 426.782 3.24048 422.651 6.10306 419.072C8.96564 415.492 12.7751 412.57 17.2076 410.552C21.6401 408.535 26.5645 407.483 31.5621 407.485L368.19 407.485C375.5 407.488 382.578 409.734 388.188 413.83C393.798 417.926 397.584 423.613 398.886 429.899L482.508 849.115Z" fill="#FD3600"/>
<path d="M551.595 853C548.944 853 546.294 853 543.643 853L471.307 263.663C470.864 259.882 471.335 256.062 472.689 252.451C474.044 248.84 476.252 245.518 479.17 242.7C482.089 239.882 485.652 237.632 489.63 236.095C493.607 234.558 497.91 233.768 502.259 233.777L687.973 233.777C692.315 233.779 696.609 234.576 700.576 236.117C704.543 237.659 708.096 239.911 711.005 242.728C713.914 245.544 716.115 248.863 717.464 252.469C718.814 256.075 719.283 259.888 718.84 263.663L647.444 845.529C615.808 850.476 583.734 852.977 551.595 853Z" fill="#FF6602"/>
<path d="M700.884 834.621L820.589 233.628L863.084 22.414C864.352 16.1276 868.117 10.4335 873.716 6.3337C879.315 2.23386 886.39 -0.00893509 893.695 1.00828e-05L1241.35 2.52919e-05C1246.35 0.00276064 1251.27 1.05721 1255.71 3.07418C1260.14 5.09116 1263.95 8.01133 1266.82 11.5877C1269.69 15.1641 1271.53 19.2915 1272.19 23.6208C1272.84 27.9501 1272.3 32.354 1270.59 36.46L1059.83 542.044C1030.65 612.094 982.917 675.118 920.533 725.967C858.149 776.816 782.883 814.048 700.884 834.621Z" fill="#FFA501"/>
</svg>
